<svg width="443" height="442" viewBox="0 0 443 442" fill="none" xmlns="http://www.w3.org/2000/svg">
<path d="M377.084 205.012H354.585L367.349 161.839H389.857L377.084 205.012Z" fill="#978A8A"/>
<path d="M385.902 206.541C382.559 193.768 349.082 192.334 331.579 192.851H249.36C245.319 192.851 242.066 196.123 242.066 200.149C242.066 204.186 245.319 207.448 249.36 207.448H331.826L332.377 208.208C332.377 208.208 393.134 234.167 385.902 206.541" fill="#978A8A"/>
<path d="M382.868 393.321L361.946 393.863L310.178 208.54H332.71L382.868 393.321" fill="#BEB5B4"/>
<path d="M407.493 436.741C407.493 439.428 405.318 441.603 402.621 441.603H40.1388C37.4512 441.603 35.2764 439.428 35.2764 436.741C35.2764 434.053 37.4512 431.878 40.1388 431.878H402.621C405.318 431.878 407.493 434.053 407.493 436.741Z" fill="#211E1E"/>
<path d="M432.551 404.271C438.064 406.555 441.017 410.226 436.99 410.226L5.25644 412.187C1.22026 412.187 1.396 409.29 9.81025 404.812L21.8903 398.065C25.3187 395.757 31.5059 394.774 34.901 394.774H407.137C411.216 394.532 415.779 395.263 421.216 398.065L432.551 404.271Z" fill="#BEB5B4"/>
<path d="M264.569 381.369C239.844 379.57 238.329 363.135 238.329 363.135C231.829 339.232 234.929 301.049 236.126 292.701C237.603 282.283 227.204 213.198 227.204 193.862C227.204 193.862 197.455 193.862 195.968 213.198C194.477 232.534 199.44 263.446 209.843 302.118C207.716 329.758 218.011 361.45 224.345 375.391C224.877 382.039 224.701 388.611 226.311 395.334C227.574 400.586 257.755 394.418 266.735 393.155C275.723 391.897 281.303 382.604 264.569 381.369" fill="#D29790"/>
<path d="M228.31 187.509C229.051 191.597 232.655 238.574 232.655 238.574L192.744 243.536L192.991 207.59L228.31 187.509Z" fill="#100F0D"/>
<path d="M259.579 380.662C257.641 377.442 254.427 373.425 252.793 373.098C249.479 372.404 247.76 374.104 248.605 377.12C249.436 380.121 255.889 386.479 255.889 386.479L259.579 380.662Z" fill="#2F4876"/>
<path d="M224.849 384.204C221.986 389.845 221.767 395.572 225.818 400.667C231.896 403.198 276.892 392.88 276.892 392.88C276.892 392.88 281.465 391.569 279.418 386.787C278.008 383.511 267.936 384.442 258.705 379.812C254.109 386.232 250.4 378.881 246.53 382.291C236.962 390.748 224.849 384.204 224.849 384.204" fill="#2F4876"/>
<path d="M238.567 396.199C228.923 397.343 224.659 399.209 224.659 399.209C224.877 400.534 225.205 403.92 226.577 403.915C227.954 403.91 264.674 400.287 276.835 395.315C279.836 394.081 280.448 388.905 279.978 388.644C280.016 390.234 278.876 391.203 276.944 391.863C257.247 398.573 248.762 394.997 238.567 396.199Z" fill="#211E1E"/>
<path d="M259.014 384.783L259.023 384.176L260.357 382.3L253.98 384.104L253.349 383.834L253.505 383.159L258.363 379.384H258.373L259.127 379.484L259.033 380.23L256.35 382.309L261.549 380.837L262.138 381.046V381.673L260.713 383.644L267.295 382.172L267.931 382.589L267.523 383.226L259.579 385.011L259.46 385.021L259.014 384.783" fill="white"/>
<path d="M213.799 218.217C202.939 235.787 174.89 265.075 167.33 269.339C159.785 273.613 92.7465 275.351 88.5109 278.637C80.1726 285.118 70.7564 294.81 66.1409 300.641C61.5302 306.477 66.3784 301.144 66.7915 284.791C67.2141 268.437 61.8341 255.901 72.1999 257.653C82.5753 259.405 82.5753 263.684 90.3675 261.533C111.94 255.588 139.201 246.057 149.609 246.323C157.268 237.596 177.525 201.911 183.665 194.632C189.795 187.348 213.799 218.217 213.799 218.217" fill="#E5BDB1"/>
<path d="M76.4645 297.127C80.1208 296.286 84.931 294.463 85.7572 293.015C87.4429 290.071 86.3602 287.92 83.2215 287.787C80.1065 287.644 72.0674 291.818 72.0674 291.818L76.4645 297.127" fill="#2F4876"/>
<path d="M83.8531 262.995C79.3753 258.536 74 256.552 67.8887 258.817C63.6056 263.821 59.4792 309.801 59.4792 309.801C59.4792 309.801 59.3036 314.559 64.4889 314.093C68.0407 313.77 70.2772 303.894 77.5376 296.548C72.8556 290.204 80.9992 288.941 78.9431 284.211C73.8765 272.502 83.8531 262.995 83.8531 262.995" fill="#2F4876"/>
<path d="M68.188 272.331C70.0969 262.81 69.6458 258.18 69.6458 258.18C68.3115 257.976 64.997 257.24 64.5696 258.541C64.147 259.857 56.2219 295.893 57.1764 308.994C57.428 312.227 62.1527 314.412 62.5468 314.051C61.0368 313.59 60.4575 312.208 60.4242 310.171C60.1441 289.363 66.1889 282.397 68.188 272.331Z" fill="#211E1E"/>
<path d="M72.034 304.482L71.5449 303.889L72.3141 295.783L72.7083 295.318L73.2828 295.517L74.6503 297.36L74.9067 290.74L75.3626 290.223L75.9561 290.574L78.0408 296.363H78.0503L77.7179 297.056L77.0293 296.723L75.8802 293.556L75.6713 298.946L75.2962 299.44L74.7026 299.254L73.2543 297.288L72.6276 303.998L72.0909 304.487L72.034 304.482" fill="white"/>
<path d="M229.426 185.776C224.222 209.699 213.704 223.754 201.952 237.339C196.994 243.066 163.883 223.293 167.278 216.617C178.243 195.078 172.188 186.331 176.728 176.939C183.741 162.404 191.771 161.146 191.771 161.146L230.176 172.889L229.426 185.776Z" fill="#211E1E"/>
<path d="M176.728 176.939C172.188 186.331 178.243 195.078 167.278 216.617C165.578 219.95 172.996 226.551 181.457 231.613C186.225 217.742 199.691 190.757 207.863 177.471C211.534 171.511 204.896 166.369 195.798 162.375L191.771 161.146C191.771 161.146 183.741 162.404 176.728 176.939" fill="#100F0D"/>
<path d="M208.348 73.4845C194.971 76.476 161.552 103.058 160.27 112.417C159.03 121.776 179.629 142.033 197.835 157.632C208.647 166.905 207.878 154.555 207.878 154.555C207.878 154.555 178.262 118.486 178.475 117.503C179.886 111.861 207.45 99.8526 210.826 96.3056C214.245 92.7585 208.348 73.4845 208.348 73.4845" fill="#D29790"/>
<path d="M240.827 50.1932C232.537 57.8002 230.015 66.2619 230.87 71.0911C233.049 83.1427 239.161 93.3138 237.537 93.8694C235.955 94.425 222.964 81.9888 218.092 79.6811C209.502 75.6212 208.305 73.9972 202.664 72.7578C212.194 63.6978 220.784 46.6888 217.536 33.3552C214.288 19.9361 240.827 50.1932 240.827 50.1932" fill="#E5BDB1"/>
<path d="M213.989 80.4075C212.465 77.8148 210.617 76.509 208.965 75.6353C208.894 75.3693 208.823 75.1272 208.761 74.904C210.575 75.8062 212.578 76.9743 215.841 78.5935L213.989 80.4075ZM206.021 74.1679C205.651 73.94 205.337 73.6932 205.104 73.3988C205.651 73.5697 206.163 73.7548 206.657 73.9495C206.448 74.016 206.239 74.092 206.021 74.1679Z" fill="url(#paint0_linear_1217_4037)"/>
<path d="M208.965 75.6355C207.835 75.0372 206.795 74.6383 206.021 74.1682C206.239 74.0922 206.448 74.0163 206.657 73.9498C207.369 74.2347 208.053 74.5481 208.761 74.9042C208.823 75.1274 208.894 75.3696 208.965 75.6355Z" fill="url(#paint1_linear_1217_4037)"/>
<path d="M205.427 69.8755C207.825 66.751 210.138 63.5506 212.161 60.2836C210.195 63.8165 207.882 67.0881 205.427 69.8755ZM232 62.7387C233.472 58.7927 236.278 54.3671 240.827 50.1932C240.827 50.1932 228.742 36.4132 221.881 31.5793C227.427 34.0675 238.144 43.4837 243.049 51.9027L232 62.7387" fill="url(#paint2_linear_1217_4037)"/>
<path d="M215.841 78.594C212.579 76.9748 210.575 75.8066 208.761 74.9044C208.054 74.5483 207.37 74.2349 206.657 73.95C206.164 73.7553 205.651 73.5702 205.105 73.3992C204.611 72.7772 204.478 71.9367 204.886 70.5787C205.067 70.346 205.247 70.1085 205.428 69.8758C207.883 67.0884 210.195 63.8168 212.161 60.2839C217.489 51.6797 220.827 42.596 218.519 33.0991C218.158 31.6033 218.609 30.948 219.611 30.948C220.195 30.948 220.969 31.1665 221.881 31.5796C228.743 36.4135 240.827 50.1935 240.827 50.1935C236.278 54.3674 233.472 58.793 232 62.739L215.841 78.594" fill="url(#paint3_linear_1217_4037)"/>
<path d="M220.376 76.5901C230.186 82.3072 232.403 95.3037 232.403 95.3037C235.438 100.869 240.561 106.657 242.071 115.751C243.586 124.868 233.301 152.204 226.207 170.405C219.127 188.616 222.983 189.185 219.948 189.185C216.914 189.185 176.885 174.783 178.124 172.889C181.348 167.931 192.991 150.272 193.49 140.661C194.007 131.06 188.808 103.471 194.976 87.1221C199.193 75.968 205.195 68.8264 206.007 69.2728C211.771 72.4352 213.685 72.6821 220.376 76.5901" fill="#4053AD"/>
<path d="M236.62 153.553C242.817 125.546 248.42 125.613 246.9 116.496C245.39 107.398 238.044 90.8305 235.005 85.2653C235.005 85.2653 231.724 82.7248 218.894 75.8443C216.966 79.2775 214.012 86.4619 213.068 99.7623C212.275 110.788 221.667 129.421 217.033 147.85C214.354 157.921 210.641 169.104 203.219 183.976C218.11 189.783 230.314 195.496 231.169 193.706C231.449 193.117 232.399 172.632 236.62 153.553" fill="#5A80C9"/>
<path d="M235.039 0.481391C220.865 -0.0836747 209.069 7.51854 208.348 25.3537C207.631 43.1842 219.359 61.2283 233.538 61.8028C242.399 62.1495 248.629 56.7553 252.223 48.303C253.961 47.9849 255.433 47.3819 255.391 46.1045C254.892 44.775 254.484 43.5688 254.156 42.4719C255.11 38.7634 255.68 34.6891 255.851 30.4013C256.559 12.5756 249.208 1.05595 235.039 0.481391" fill="#E5BDB1"/>
<path d="M233.196 61.8508C234.768 61.9173 236.245 61.7938 237.655 61.5089C223.699 55.882 229.777 20.4728 233.073 14.1146C230.893 13.2694 237.356 0.652841 234.702 0.548375C220.523 -0.0261877 208.718 7.58065 208.006 25.4158C207.284 43.2415 219.022 61.2857 233.196 61.8508" fill="#D29790"/>
<path d="M254.526 14.4567C255.158 10.2211 248.282 -1.3034 228.006 0.121138C219.592 0.705197 214.359 2.82301 211.03 5.93799C206.842 8.68734 202.635 13.3882 199.05 21.5935C187.787 37.6385 170.977 53.94 161.794 46.067C162.454 47.6198 164.011 49.3055 166.262 50.6018C163.09 50.0178 160.013 48.7309 157.112 46.4564C156.775 49.7234 159.495 54.7852 164.728 57.734C161.708 56.7416 158.565 54.9276 156.333 52.9C153.873 50.6682 158.783 59.0778 164.173 61.1766C161.931 60.5166 157.867 59.0968 156.081 56.8603C154.927 55.412 155.621 66.0057 171.238 66.5565C175.018 66.6848 179.154 65.3884 182.055 63.9449C177.886 66.4948 174.719 67.777 162.154 66.5424C181.799 75.0944 214.425 64.7997 224.777 43.8686C225.921 42.3443 226.434 40.9482 225.665 39.9605C223.851 37.6575 221.021 29.153 224.967 28.7352C226.881 28.5358 229.198 29.8272 229.198 29.8272L236.159 23.526C241.591 24.4425 253.909 26.418 259.07 26.3705C262.219 18.4595 256.141 14.4804 254.526 14.4567" fill="#2A1412"/>
<path d="M171.481 66.6701C175.265 66.8078 178.409 65.9104 181.305 64.4669C176.918 66.4137 174.975 67.8858 162.397 66.6607C182.051 75.2032 214.673 64.9085 225.034 43.9821C226.173 42.4578 226.672 41.0569 225.907 40.074C224.098 37.7805 221.278 29.2761 225.233 28.844C227.128 28.6398 228.861 30.8384 228.861 30.8384L236.416 23.6443C241.853 24.556 254.151 26.5266 259.322 26.4839C262.47 18.5777 256.388 14.5986 254.759 14.5796C255.305 11.0325 249.83 3.80546 244.607 2.56612C233.6 5.87579 226.648 18.8106 219.863 31.2847C202.222 63.7451 171.22 68.4034 157.458 60.8438C159.377 63.4412 163.437 66.3852 171.481 66.6701" fill="#581A1B"/>
<path d="M303.136 123.709C304.974 123.039 306.494 122.702 306.446 121.729C306.403 121.135 304.836 121.173 303.644 121.292C304.176 121.187 304.737 121.04 305.188 120.77C306.636 119.905 306.422 118.97 305.777 118.542C305.121 118.11 301.318 119.046 301.318 119.046C301.318 119.046 302.828 118.471 304.257 117.887C305.971 117.189 304.722 116.311 304.722 116.311C303.739 115.67 301.926 115.75 299.081 116.126C296.807 116.415 294.148 117.294 296.104 116.002C298.578 114.35 299.661 111.876 297.59 113.148C296.598 113.761 290.99 114.563 289.38 116.311C287.771 118.058 285.016 119.654 282.224 122.156L279.057 123.343C270.548 125.357 245.452 125.1 242.442 123.927C239.042 122.617 230.898 98.7604 227.945 90.0993C224.977 81.4286 218.647 76.4379 210.247 79.9708C210.247 79.9708 199.558 85.46 205.589 103.295C209.972 116.225 223.576 138.068 233.89 142.517C242.451 146.198 270.42 138.291 283.065 133.258C284.38 132.94 285.543 132.664 286.317 132.484C295.976 130.252 299.694 128.766 302.486 127.28C304.4 126.263 306.579 124.307 306.266 123.562C306.095 123.129 305.477 123.338 303.136 123.709" fill="#E5BDB1"/>
<path d="M391.68 142.93H374.652V114.9H391.68V142.93Z" fill="#978A8A"/>
<path d="M398.471 193.521C397.806 196.28 393.547 197.22 389.059 195.629L346.917 180.776C343.564 179.593 341.456 176.811 342.13 174.546L354.989 131.653C355.611 129.611 358.755 128.4 362.088 128.956L403.001 133.752C407.384 134.483 410.546 137.062 409.971 139.498L398.471 193.521" fill="#211E1E"/>
<path d="M387.027 185.13C386.353 187.485 382.967 188.392 379.524 187.191L348.46 177.642C345.905 176.754 344.395 174.475 345.046 172.547L356.134 134.274C356.722 132.517 359.263 131.382 361.86 131.738L394.259 136.193C397.692 136.667 400.071 138.761 399.473 140.865L387.027 185.13" fill="#5E7C9D"/>
<path d="M404.449 122.018C404.449 124.245 401.035 125.864 396.923 125.646L370.213 124.231C366.912 124.06 364.272 122.36 364.253 120.432L364.059 92.3736C364.04 90.422 366.675 88.6271 369.994 88.3612L396.87 86.1769C401.006 85.8445 404.449 87.3877 404.449 89.6337V122.018Z" fill="#978A8A"/>
<path d="M398.238 119.449C398.238 121.311 395.546 122.659 392.312 122.46L371.466 121.187C368.893 121.03 366.846 119.606 366.841 118.001L366.689 94.6719C366.68 93.0574 368.717 91.5569 371.286 91.3289L392.246 89.4248C395.489 89.1351 398.2 90.4078 398.205 92.2976L398.238 119.449Z" fill="#BEB5B4"/>
<path d="M372.217 412.106L337.548 394.475L377.079 381.393L431.212 392.946L372.217 412.106" fill="#BEB5B4"/>
<path d="M432.731 392.946L378.879 407.552H7.30318C3.27649 407.552 0 410.814 0 414.846V427.011C0 431.043 3.27649 434.31 7.30318 434.31H435.466C439.498 434.31 442.769 431.043 442.769 427.011V414.846C442.769 414.077 432.731 392.946 432.731 392.946" fill="#978A8A"/>
<path d="M440.718 411.807C434.279 396.598 429.991 386.873 429.991 386.873L362.444 406.94H7.20823C3.39523 406.94 0.318146 409.893 0 413.635H440.523C440.466 413.089 440.837 412.096 440.718 411.807Z" fill="#211E1E"/>
<path d="M442.47 415.154L418.747 415.753L360.051 205.629H385.593L442.47 415.154" fill="#978A8A"/>
<path d="M387.721 210.107C387.721 214.685 383.347 218.403 377.948 218.403H263.069C257.68 218.403 253.297 214.685 253.297 210.107C253.297 205.525 257.68 201.812 263.069 201.812H377.948C383.347 201.812 387.721 205.525 387.721 210.107Z" fill="#BEB5B4"/>
<defs>
<linearGradient id="paint0_linear_1217_4037" x1="213.438" y1="72.8242" x2="228.271" y2="46.2407" gradientUnits="userSpaceOnUse">
<stop stop-color="white"/>
<stop offset="0.712519" stop-color="#B0A19B"/>
<stop offset="1" stop-color="#B0A19B"/>
</linearGradient>
<linearGradient id="paint1_linear_1217_4037" x1="213.438" y1="72.8244" x2="228.271" y2="46.2407" gradientUnits="userSpaceOnUse">
<stop stop-color="#D29790"/>
<stop offset="0.712519" stop-color="#8F5E57"/>
<stop offset="1" stop-color="#8F5E57"/>
</linearGradient>
<linearGradient id="paint2_linear_1217_4037" x1="213.438" y1="72.8243" x2="228.271" y2="46.2407" gradientUnits="userSpaceOnUse">
<stop stop-color="white"/>
<stop offset="0.712519" stop-color="#B0A19B"/>
<stop offset="1" stop-color="#B0A19B"/>
</linearGradient>
<linearGradient id="paint3_linear_1217_4037" x1="213.438" y1="72.8246" x2="228.271" y2="46.241" gradientUnits="userSpaceOnUse">
<stop stop-color="#E5BDB1"/>
<stop offset="0.712519" stop-color="#9C766C"/>
<stop offset="1" stop-color="#9C766C"/>
</linearGradient>
</defs>
</svg>
