<svg width="428" height="316" viewBox="0 0 428 316" fill="none" xmlns="http://www.w3.org/2000/svg">
<path d="M276.313 299.073H260.543V209.689H276.313V299.073Z" fill="#BEB5B4"/>
<path d="M308.152 299.643C308.152 301.581 306.584 303.152 304.652 303.152H232.212C230.275 303.152 228.708 301.581 228.708 299.643V292.635C228.708 290.697 230.275 289.13 232.212 289.13H304.652C306.584 289.13 308.152 290.697 308.152 292.635V299.643Z" fill="#978A8A"/>
<path d="M345.103 214.807C345.103 217.794 343.718 220.202 342.003 220.202H231.954C230.236 220.202 228.847 217.794 228.847 214.807V190.548C228.847 187.566 230.236 185.153 231.954 185.153H342.003C343.718 185.153 345.103 187.566 345.103 190.548V214.807Z" fill="#211E1E"/>
<path d="M234.987 201.802C232.65 202.856 227.104 210.273 230.838 216.431L112.727 62.7146C111.674 61.3518 113.33 59.9415 116.45 59.5807L211.104 48.7969C213.32 48.5405 215.768 49.2765 216.609 50.4256L310.534 180.638C311.281 181.663 284.443 167.29 282.741 168.064L234.987 201.802Z" fill="#978A8A"/>
<path d="M134.798 62.4772L237.175 203.995L231.04 218.45L113.77 64.8136L134.798 62.4772" fill="#211E1E"/>
<path d="M236.446 74.7376C242.58 78.2467 273.254 85.2554 273.254 85.2554C273.254 85.2554 280.262 105.413 278.509 106.286C276.76 107.165 256.6 110.669 245.205 98.3992C233.818 86.1339 236.446 74.7376 236.446 74.7376" fill="#E5BDB1"/>
<path d="M339.709 32.9276C339.709 51.1332 329.667 64.0823 315.349 65.8772C312.956 66.1764 307.187 66.7747 305.006 65.8772C294.964 61.7745 291.031 47.7998 291.031 32.9276C291.031 18.0982 292.142 4.85004 302.101 0.747373C304.366 -0.19282 312.913 0.0208465 315.349 0.0208465C328.811 0.0208465 339.709 14.7648 339.709 32.9276" fill="#211E1E"/>
<path d="M304.741 65.7631C294.144 64.5807 285.463 54.1864 283.087 40.4966L291.274 39.167C292.257 51.4275 296.301 62.1305 304.741 65.7631ZM282.46 31.6977C282.94 14.1047 293.644 0.0206672 306.759 0.0206672C307.12 0.0206672 307.478 0.0349451 307.834 0.0539389C305.404 0.134663 303.118 0.324582 302.101 0.747194C292.734 4.60768 291.194 16.5595 291.046 30.3063L282.46 31.6977" fill="#12110F"/>
<path d="M306.759 65.8772C306.08 65.8772 305.407 65.8392 304.741 65.7632C296.301 62.1307 292.257 51.4277 291.274 39.1672L303.895 37.1158C305.776 36.8166 306.929 34.6371 306.588 32.2439C306.193 30.0359 304.633 28.4071 302.947 28.4071C302.808 28.4071 302.669 28.4166 302.528 28.4404L291.046 30.3065C291.195 16.5597 292.734 4.60787 302.101 0.74738C303.118 0.324768 305.405 0.134848 307.835 0.0541247C320.796 0.813877 331.119 15.2492 331.119 32.9276C331.119 51.1332 320.221 65.8772 306.759 65.8772" fill="#100F0D"/>
<path d="M318.235 33.108C318.235 42.4767 312.62 50.0695 305.7 50.0695C298.777 50.0695 293.167 42.4767 293.167 33.108C293.167 23.7536 298.777 16.1561 305.7 16.1561C312.62 16.1561 318.235 23.7536 318.235 33.108Z" fill="#211E1E"/>
<path d="M309.582 33.0938C309.582 36.6172 307.035 39.4662 303.91 39.4662C300.775 39.4662 298.235 36.6172 298.235 33.0938C298.235 29.5705 300.775 26.7167 303.91 26.7167C307.035 26.7167 309.582 29.5705 309.582 33.0938Z" fill="#978A8A"/>
<path d="M283.623 54.4381C282.451 49.1863 285.808 45.8245 282.89 42.0305C281.299 39.9554 274.423 37.3532 272.667 37.3532C270.915 37.3532 264.195 35.6058 260.69 37.3532C257.186 39.1054 254.559 42.6192 259.814 46.7076C265.072 50.7913 272.084 50.5017 271.498 57.2208C271.092 61.9122 283.623 54.4381 283.623 54.4381" fill="#E5BDB1"/>
<path d="M161.67 63.0612C165.821 66.9644 179.495 73.864 178.327 86.718C177.534 95.3555 184.208 95.7971 184.208 95.7971L203.146 87.0077C203.146 87.0077 196.801 71.5325 201.397 61.8931C204.255 55.9243 161.67 63.0612 161.67 63.0612" fill="#D29790"/>
<path d="M255.079 87.2261C255.079 87.2261 238.453 74.1678 235.864 73.2798C227.762 70.5067 218.046 74.3055 207.531 73.8639C207.865 74.9608 198.97 65.7109 200.076 60.2834C200.447 58.4885 200.807 57.4913 196.661 56.5748L186.502 57.2159L198.184 82.6296C189.42 85.8443 178.907 83.6552 178.907 83.6552C172.902 89.5623 166.523 88.7076 161.875 91.6089C159.844 91.7466 157.735 93.4512 154.512 97.9623C148.672 106.144 141.811 122.061 141.811 122.061L131.296 151.857C138.424 152.569 155.532 148.638 168.682 131.99C170.728 136.52 173.236 141.102 184.451 139.587C195.3 138.12 261.75 121.139 261.75 121.139L255.079 87.2261Z" fill="#E5BDB1"/>
<path d="M179.354 83.1045C173.346 89.0116 167.551 88.9783 162.324 91.0629C160.29 91.2006 158.173 92.9005 154.949 97.4163C149.116 105.598 142.249 121.51 142.249 121.51L138.742 144.849C145.402 136.425 157.531 113.965 159.555 109.572C162.18 103.879 163.936 97.307 177.297 95.1132C181.719 94.3915 194.024 87.6392 197.672 82.4111C190.058 83.8642 179.354 83.1045 179.354 83.1045" fill="#D29790"/>
<path d="M151.743 83.7977C151.743 83.7977 157.145 71.238 157.145 65.103C157.145 58.9728 149.765 52.6906 146.263 50.06C142.758 47.4341 123.701 50.4969 122.823 56.6319C121.947 62.7669 127.789 69.4859 133.049 71.2381C137.011 72.5582 136.147 79.5479 135.881 82.1168C135.798 82.943 135.525 83.8119 135.097 84.6714L151.743 83.7977" fill="#E5BDB1"/>
<path d="M122.538 144.849C111.14 124.687 129.544 98.3993 135.672 72.9903C144.436 72.9903 156.705 69.4859 156.705 69.4859C156.705 69.4859 151.01 90.9537 152.323 125.565C152.889 140.475 136.219 153.828 130.093 152.071C123.957 150.319 122.538 144.849 122.538 144.849Z" fill="#E5BDB1"/>
<path d="M128.668 63.3509C133.049 68.1706 143.785 71.4518 143.336 74.0825C142.906 76.7131 128.226 108.917 127.789 127.759C127.577 137.014 127.782 139.592 128.377 143.381C128.989 147.313 133.344 151.857 133.344 151.857C133.344 151.857 128.775 153.277 125.185 149.469C122.71 146.829 119.848 142.341 119.028 133.894C117.164 114.834 134.071 83.7977 134.798 75.184C135.136 71.2286 124.424 68.1706 122.966 64.2294C121.677 60.7156 128.668 63.3509 128.668 63.3509" fill="#D29790"/>
<path d="M314.429 142.213C333.124 142.213 388.044 145.722 397.677 160.618C397.677 160.618 400.309 171.131 398.857 178.14C394.859 197.319 385.997 244.742 389.501 252.918C393.006 261.1 411.7 272.776 415.203 276.281C418.709 279.795 377.817 276.281 368.47 275.117C359.131 273.954 368.359 260.184 367.302 251.746C364.974 233.051 357.957 195.671 368.47 182.817L314.725 175.804L314.429 142.213" fill="#E5BDB1"/>
<path d="M367.012 251.57C372.408 254.267 390.135 252.786 390.669 251.166C391.209 257.102 397.829 261.945 402.646 265.188C407.465 268.427 364.853 269.647 364.853 269.647C364.853 269.647 366.439 260.706 366.673 259.523C368.023 252.785 367.012 251.57 367.012 251.57Z" fill="#EBECEC"/>
<path d="M406.29 263.963C404.747 260.07 401.952 255.07 400.214 254.4C396.682 253.033 394.497 254.59 394.864 258.056C395.236 261.508 401.167 269.685 401.167 269.685L406.29 263.963" fill="#BEB5B4"/>
<path d="M367.552 260.198C366.079 259.419 365.397 261.01 365.397 261.01C363.837 267.23 361.976 273.432 365.501 279.785C371.733 283.674 423.086 280.569 423.086 280.569C423.086 280.569 428.361 279.975 426.98 274.334C426.034 270.483 414.782 269.647 405.473 262.866C399.25 269.087 396.519 260.326 391.636 263.365C382.6 269.02 371.937 262.534 367.552 260.198Z" fill="#BEB5B4"/>
<path d="M380.337 277.202C369.527 276.685 364.49 277.957 364.49 277.957C364.49 279.472 364.23 283.242 365.749 283.484C367.255 283.741 408.303 286.481 422.583 283.242C426.097 282.43 427.729 276.846 427.258 276.471C427.009 278.237 425.577 279.092 423.335 279.472C400.442 283.242 391.767 277.739 380.337 277.202" fill="#978A8A"/>
<path d="M404.918 268.394L405.044 267.715L406.838 265.915L399.494 266.732L398.851 266.314L399.146 265.602L405.182 262.335H405.191L406.002 262.577L405.757 263.398L402.431 265.193L408.42 264.529L409.025 264.87L408.915 265.55L407.014 267.454L414.504 267.036L415.139 267.601L414.573 268.232L405.503 268.74L405.46 268.745L404.918 268.394" fill="white"/>
<path d="M283.768 126.88L307.842 139.469C307.842 139.469 350.799 142.213 362.848 146.268C357.805 146.705 349.046 178.14 344.667 182.086C326.89 180.438 328.298 180.22 299.811 178.368L261.491 153.163L283.768 126.88" fill="#100F0D"/>
<path d="M363.1 146.093C348.66 141.914 307.951 139.682 307.951 139.682L307.826 139.568L305.889 142.213C305.889 142.213 344.813 148.348 356.363 155.941C358.797 150.433 361.162 146.235 363.1 146.093" fill="#211E1E"/>
<path d="M297.779 158.272C326.988 165.286 352.702 172.309 355.032 189.831C356.271 199.081 337.897 266.532 341.599 285.051C347.442 294.401 362.628 302.568 367.884 304.321C373.143 306.082 334.58 311.329 322.317 307.825C310.044 304.321 317.647 290.303 320.569 280.963C320.569 280.963 318.808 249.989 315.304 234.214C311.801 218.445 317.053 200.918 317.053 200.918L273.244 190.4L297.779 158.272" fill="#D29790"/>
<path d="M319.285 277.368C325 280.526 342.578 279.5 343.231 277.777C343.55 284.216 349.556 290.303 354.622 294.031C359.685 297.753 316.141 296.818 316.141 296.818C316.141 296.818 318.248 287.226 318.561 285.958C320.325 278.731 319.285 277.368 319.285 277.368Z" fill="#EBECEC"/>
<path d="M361.203 292.525C359.704 288.252 356.903 282.729 355.054 281.922C351.296 280.284 348.866 281.865 349.111 285.631C349.361 289.387 355.406 298.499 355.406 298.499L361.203 292.525" fill="#BEB5B4"/>
<path d="M319.478 286.727C317.929 285.82 317.111 287.501 317.111 287.501C315.141 294.173 312.858 300.783 316.376 307.811C322.944 312.298 378.62 311.234 378.62 311.234C378.62 311.234 384.352 310.821 383.111 304.672C382.261 300.46 370.125 299.064 360.365 291.31C353.361 297.768 350.799 288.166 345.385 291.238C335.35 296.946 324.119 289.453 319.478 286.727" fill="#BEB5B4"/>
<path d="M332.541 305.683C320.871 304.648 315.367 305.783 315.367 305.783C315.304 307.421 314.861 311.491 316.488 311.833C318.107 312.165 362.373 316.971 377.958 314.102C381.796 313.385 383.806 307.431 383.315 306.999C382.97 308.889 381.378 309.753 378.939 310.057C354.013 313.115 344.891 306.78 332.541 305.683" fill="#978A8A"/>
<path d="M359.526 297.255L359.682 296.533L361.709 294.658L353.735 295.223L353.055 294.734L353.405 293.983L360.082 290.726L360.949 291.03L360.648 291.899L356.987 293.684L363.488 293.233L364.13 293.627L363.976 294.363L361.828 296.338L369.937 296.22L370.602 296.866L369.956 297.526L360.131 297.663L359.526 297.255Z" fill="white"/>
<path d="M238.079 159.92C236.569 173.615 236.702 189.137 260.917 201.308L311.806 204.432C311.806 204.432 313.561 162.807 341.161 168.942C323.275 158.311 313.561 151.273 313.561 151.273L273.687 137.83L238.079 159.92" fill="#100F0D"/>
<path d="M288.876 151.857C300.267 156.235 331.668 166.9 333.859 168.211C333.859 168.211 328.748 168.501 323.49 172.883C304.214 163.681 288.876 151.857 288.876 151.857Z" fill="#211E1E"/>
<path d="M198.587 34.0529C208.338 47.2299 212.843 60.0887 206.021 65.1268C199.201 70.1411 173.672 76.3568 163.944 63.1941C154.191 50.0457 154.749 31.7974 168.948 24.2996C184.451 16.1133 188.832 20.8997 198.587 34.0529Z" fill="#E5BDB1"/>
<path d="M164.895 66.0527C173.778 78.0426 197.09 73.1185 206.031 64.538C193.51 64.9654 171.602 63.0612 160.503 32.6854C160.503 32.6854 162.464 33.8772 158.064 38.374C157.492 44.2858 159.852 59.2292 164.895 66.0527Z" fill="#D29790"/>
<path d="M183.004 16.9491C190.177 20.6577 193.525 26.9066 190.518 24.3377C183.87 18.6633 173.477 22.3386 172.726 25.767C172.03 28.977 168.924 32.016 168.289 34.3047C167.677 36.5887 165.472 28.2979 165.472 28.2979L166.752 35.0454L162.838 46.2613L166.933 52.6907L164.007 55.3214L175.692 75.3265C175.692 75.3265 166.633 75.0321 153.491 63.935C150.01 60.9957 147.635 57.6623 145.371 54.0344C142.905 50.0695 141.982 42.2726 143.824 39.5992C145.66 36.9448 146.691 35.2401 148.413 34.8365C150.134 34.3949 147.984 31.6456 150.772 27.9133C153.528 24.1763 153.951 22.9179 160.824 19.3376C175.267 11.7923 183.004 16.9491 183.004 16.9491" fill="#2A1412"/>
<path d="M306.588 32.2438C306.161 29.8506 304.366 28.1411 302.527 28.4403L67.1804 66.6463C65.3423 66.9455 64.1889 69.125 64.5726 71.5182C64.9587 73.9114 66.7521 75.6209 68.5903 75.3217L303.895 37.1157C305.775 36.8166 306.929 34.637 306.588 32.2438" fill="#BEB5B4"/>
<path d="M278.509 106.286C281.134 104.976 287.854 102.492 288.734 90.2271C289.609 77.9571 286.688 63.9348 282.891 51.0808C275.004 51.0808 272.375 52.5481 272.375 52.5481C272.375 52.5481 267.407 67.444 263.901 84.9705C260.258 103.176 278.509 106.286 278.509 106.286" fill="#E5BDB1"/>
<path d="M266.245 42.6192C269.45 44.6563 274.126 44.8034 276.905 48.6021C278.007 50.1074 277.053 57.7999 276.76 61.8931C276.46 65.9815 274.423 90.5215 274.423 90.5215L263.904 82.924C263.904 82.924 271.507 56.176 270.618 53.2747C269.851 50.758 257.147 47.0305 256.896 43.7825C256.703 41.3798 266.245 42.6192 266.245 42.6192" fill="#D29790"/>
<path d="M103.69 65.103L306.566 32.239C306.566 32.239 308.303 36.6265 305.67 37.0586C303.041 37.5002 103.031 69.6996 103.031 69.6996L103.69 65.103" fill="#978A8A"/>
<path d="M257.333 35.8954C257.333 34.1432 261.422 30.9285 262.739 30.0548C264.047 29.1763 268.87 32.4623 270.187 34.2144C271.498 35.9666 274.202 37.7948 271.279 37.9373C268.359 38.0845 263.901 34.5801 263.901 34.5801L257.333 35.8954Z" fill="#E5BDB1"/>
<path d="M265.138 30.601C266.306 29.4376 268.502 28.8488 269.671 29.4329C270.84 30.0169 276.979 34.9838 276.681 36.4416C276.391 37.9041 276.391 39.0675 274.345 37.6144C272.296 36.1519 265.138 30.601 265.138 30.601Z" fill="#E5BDB1"/>
<path d="M271.498 30.7862C272.084 30.1974 273.358 29.3236 274.67 30.0549C275.991 30.7814 279.826 36.774 278.945 37.2156C278.075 37.6477 276.172 36.19 276.172 36.19L271.498 30.7862Z" fill="#E5BDB1"/>
<path d="M275.004 31.2229C277.053 31.0757 278.834 31.5458 279.713 33.0131C280.587 34.4709 281.496 36.8118 280.476 36.9542C279.456 37.0967 275.004 31.2229 275.004 31.2229Z" fill="#E5BDB1"/>
<path d="M264.204 44.3714C263.029 36.4795 259.156 32.2438 262.081 32.2438C264.998 32.2438 267.409 36.7738 269.161 40.2782C270.915 43.7825 275.004 48.2318 275.004 48.2318L264.204 44.3714" fill="#D29790"/>
<path d="M154.949 71.8934C156.049 72.9903 158.151 63.3462 158.674 60.7251C159.202 58.0944 157.583 55.2454 155.17 53.2748C153.491 51.9025 150.351 50.6441 148.6 48.0135C147.296 46.0619 144.436 49.1151 147.726 52.6147C150.134 55.1883 151.903 58.4838 151.903 58.4838L148.747 62.691C148.747 62.691 152.451 69.391 154.949 71.8934" fill="#E5BDB1"/>
<path d="M144.295 47.2869C146.921 50.3544 148.381 52.8331 147.947 55.4637C147.509 58.0944 144.733 57.0735 141.227 51.3801C145.605 56.1998 146.921 59.1153 143.274 58.6832C138.918 58.1561 135.969 52.6907 135.969 52.6907C135.969 52.6907 141.811 58.6832 138.304 59.557C133.559 60.7441 129.395 54.8844 129.395 54.8844C129.395 54.8844 135.534 60.2834 132.463 60.7251C129.395 61.1572 122.966 56.1191 122.966 56.1191C122.966 56.1191 121.947 51.2329 125.891 51.665C127.642 49.0391 129.543 48.4598 130.86 48.892C132.611 45.3923 137.139 46.2661 138.014 47.5814C141.08 44.5139 144.295 47.2869 144.295 47.2869" fill="#E5BDB1"/>
<path d="M107.865 66.9881C109.019 88.4843 98.0366 104.425 81.1981 107.459C78.3771 107.972 71.6252 109.083 68.9338 108.143C56.8381 103.955 51.2829 87.7151 50.3427 70.1079C49.402 52.5861 49.8731 36.8593 61.4104 31.3463C63.9755 30.107 74.0607 29.8078 77.01 29.6368C92.8651 28.7821 106.712 45.5346 107.865 66.9881" fill="#211E1E"/>
<path d="M69.9039 108.048C69.4495 108.048 68.997 108.029 68.5478 108.001C56.7213 103.604 51.2734 87.5253 50.3427 70.108C49.402 52.5862 49.8731 36.8594 61.4104 31.3465C62.5752 30.7862 65.2851 30.4158 68.175 30.1641C83.5035 30.2828 96.5731 46.6507 97.6933 67.5439C98.8918 89.0401 86.9243 107.16 71.0706 108.015C70.6793 108.034 70.2895 108.048 69.9039 108.048Z" fill="#100F0D"/>
<path d="M82.506 68.5932C83.1071 79.6571 76.9508 88.9925 68.7763 89.4388C60.598 89.8804 53.4754 81.262 52.8799 70.1981C52.2792 59.1295 58.4223 49.7941 66.6096 49.3525C74.7878 48.9156 81.9086 57.5245 82.506 68.5932Z" fill="#211E1E"/>
<path d="M72.2727 69.125C72.503 73.2846 69.6871 76.8175 65.981 77.0217C62.2805 77.2211 59.0976 74.0111 58.8768 69.8515C58.6432 65.6871 61.4628 62.1543 65.1685 61.9501C68.8728 61.7507 72.0519 64.9606 72.2727 69.125" fill="#978A8A"/>
<path d="M68.422 69.3908C68.0288 67.0024 67.1997 65.1505 66.5634 65.2549L0.648831 76.2476C0.0163212 76.3473 -0.195133 78.3701 0.199953 80.7538C0.578345 83.1471 1.40932 84.9989 2.05296 84.8992L67.9694 73.9019C68.6091 73.8021 68.8056 71.7793 68.422 69.3908Z" fill="#BEB5B4"/>
<path d="M0.236816 81.0723L68.4217 69.391C68.4217 69.391 70.3657 73.3512 67.9692 73.902C65.5746 74.4576 2.05273 84.8994 2.05273 84.8994L0.236816 81.0723Z" fill="#978A8A"/>
<path d="M220.379 72.4014C227.389 74.7377 228.847 82.924 220.086 88.1758C210.226 94.0971 178.76 88.3942 172.917 87.2261C169.191 88.9783 164.813 90.0752 164.813 90.0752C164.813 90.0752 176.69 91.286 184.961 98.1808C205.993 115.707 193.069 140.024 176.419 139.587C176.419 139.587 204.906 147.185 216.59 158.866C228.276 170.547 235.569 180.334 240.392 184.717C242.727 180.623 239.184 167.845 259.234 154.483C269.747 147.474 304.36 136.083 304.36 136.083C304.36 136.083 296.557 133.101 284.64 121.187C274.126 110.669 268.578 100.74 250.174 84.9706C250.174 84.9706 234.478 76.4234 225.642 72.4014C223.038 71.2238 220.379 72.4014 220.379 72.4014" fill="#5A80C9"/>
<path d="M176.419 139.587C176.419 139.587 204.906 147.185 216.59 158.866C228.275 170.547 235.569 180.334 240.391 184.717C242.706 180.657 239.277 168.054 258.771 154.82C238.036 133.158 208.405 118.87 194.252 110.636C199.937 125.366 189.344 139.924 176.419 139.587" fill="#4053AD"/>
</svg>
