<svg width="320" height="470" viewBox="0 0 320 470" fill="none" xmlns="http://www.w3.org/2000/svg">
<path d="M127.217 301.242C113.065 317.378 101.248 336.917 89.2577 352.839C78.0063 361.495 75.1662 362.279 74.916 365.807C74.6657 369.335 98.9346 391.444 105.822 394.293C112.713 397.147 110.093 392.341 110.093 392.341C110.093 392.341 97.4507 371.543 102.82 362.469C108.194 353.39 148.02 320.811 148.02 320.811L127.217 301.242" fill="#D29790"/>
<path d="M195.185 313.731C192.826 330.236 198.331 367.778 203.837 390.376L200.986 400.205C200.986 400.205 239.014 411.107 239.014 405.214C239.014 399.317 218.084 397.55 218.084 386.938C218.084 376.325 220.345 304.3 220.345 304.3L195.185 313.731Z" fill="#E5BDB1"/>
<path d="M147.613 201.33C147.613 206.031 141.159 265.776 138.767 275.221L111.073 320.607L129.535 338.898C129.535 338.898 164.749 306.376 170.049 290.52C177.913 266.973 191.845 207.997 191.845 207.997L147.613 201.33" fill="#100F0D"/>
<path d="M152.357 160.432C149.707 167.056 136.715 182.27 136.63 198.168C136.416 231.203 177.101 263.81 191.246 294.879C191.246 294.879 188.126 338.513 196.375 357.744C210.136 362.873 219.965 357.744 219.965 357.744C219.965 357.744 224.665 299.666 224.665 291.717C224.665 283.768 196.673 213.211 194.025 205.262C191.374 197.27 199.494 173.808 199.494 173.808L152.357 160.432Z" fill="#211E1E"/>
<path d="M211.161 60.0876C202.955 65.3014 199.708 75.1734 200.264 79.447C201.588 88.9344 205.947 99.3193 204.751 99.6612C203.341 100.131 188.04 93.2935 184.963 84.9172C182.144 77.1393 180.86 71.6691 176.245 69.746C180.092 66.5408 187.528 49.3181 186.801 37.3947C186.032 25.4713 211.161 60.0876 211.161 60.0876Z" fill="#E5BDB1"/>
<path d="M179.338 72.0442C178.722 71.4696 178.028 70.8713 177.225 70.2398C178.03 70.7146 178.722 71.3177 179.338 72.0442ZM205.948 64.6746C206.311 64.2472 206.693 63.8245 207.092 63.4114L207.357 63.7629L205.948 64.6746M185.271 50.2535C186.021 46.3408 186.203 43.506 186.203 43.506L186.552 43.601C186.278 45.7901 185.835 48.036 185.271 50.2535Z" fill="url(#paint0_linear_1217_4090)"/>
<path d="M184.903 78.3267C182.831 75.9667 181.581 74.1385 179.338 72.0445C178.722 71.318 178.03 70.7149 177.225 70.24C177.032 70.0881 176.836 69.9361 176.628 69.7794C178.935 66.4793 182.189 61.3747 183.554 57.0964C184.322 54.6889 184.876 52.3193 185.272 50.2538C185.836 48.0362 186.279 45.7903 186.552 43.6013L193.468 45.4722L207.092 63.4117C206.693 63.8248 206.311 64.2475 205.948 64.6749L184.903 78.3267" fill="url(#paint1_linear_1217_4090)"/>
<path d="M184.401 22.7315C188.287 4.51643 201.765 -1.23392 216.242 1.85732C230.726 4.92482 236.257 18.0685 232.392 36.2836C231.648 39.7737 230.671 43.0786 229.48 46.1271C229.525 47.8745 229.708 49.9022 230.107 52.3857C229.855 53.8767 227.747 54.0807 225.585 53.924C220.395 62.0819 213.02 66.5929 203.914 64.6603C189.43 61.5881 180.536 40.9513 184.401 22.7315" fill="#E5BDB1"/>
<path d="M203.545 64.6556C205.163 65.0022 208.171 65.1969 209.664 65.1494C196.282 56.8871 207.689 16.1786 212.187 10.2193C210.102 8.95618 218.601 2.42711 215.878 1.8478C201.393 -1.23394 187.918 4.51178 184.039 22.7268C180.161 40.9514 189.068 61.5881 203.545 64.6556Z" fill="#D29790"/>
<path d="M216.877 23.3727L233.552 20.2957C235.754 16.8911 231.358 2.46515 209.067 0.228631C188.648 -1.80371 181.894 10.0627 178.918 21.7344C175.951 33.3871 184.641 52.4048 184.641 52.4048C184.641 52.4048 202.001 45.1681 199.649 40.8042C198.194 38.1309 196.781 28.8714 200.912 29.142C202.915 29.2702 204.304 31.8297 204.304 31.8297L216.877 23.3727" fill="#100F0D"/>
<path d="M235.65 16.3449C237.124 16.3544 243.165 21.6111 238.386 29.4365C231.463 28.3064 212.651 21.535 212.651 21.535L220.879 15.7326L235.65 16.3449" fill="#100F0D"/>
<path d="M167.116 17.736C167.086 24.2604 171.902 29.5787 177.897 29.612C183.879 29.6357 188.751 24.3696 188.785 17.8357C188.814 11.3113 183.986 5.99317 178.006 5.96943C172.015 5.94094 167.15 11.2069 167.116 17.736Z" fill="#100F0D"/>
<path d="M190.947 85.3873C199.195 95.7294 204.836 95.0884 204.836 95.0884C207.4 104.234 214.537 113.764 215.221 118.379C216.248 124.833 209.494 133.294 206.973 136.072C204.452 138.85 202.316 151.415 201.674 155.517C201.032 159.663 196.974 202.698 196.974 202.698C196.974 202.698 158.04 199.45 141.843 187.056C139.237 185.091 161.288 159.363 159.793 116.414C159.236 99.7466 161.117 89.7464 178.425 73.8486C184.196 77.6094 186.16 79.3187 190.947 85.3873" fill="#9B49A9"/>
<path d="M155.903 109.362C154.835 164.748 135.902 183.68 138.595 185.603C144.193 189.621 148.765 193.125 165.391 197.057C165.391 197.057 182.613 126.328 182.229 123.892C181.801 121.457 177.527 102.524 178.68 94.7892C179.536 89.1053 181.886 82.4812 185.52 79.0196C182.101 75.2588 180.99 72.9083 175.776 69.1476C157.485 81.2419 156.201 92.6951 155.903 109.362" fill="#6F2981"/>
<path d="M88.8724 469.774L93.8122 456.503L87.6853 427.565L58.4082 433.354L88.8724 469.774Z" fill="#5E7C9D"/>
<path d="M230.346 469.774L225.41 456.503L231.533 427.565L260.814 433.354L230.346 469.774Z" fill="#5E7C9D"/>
<path d="M299.401 428.363C299.401 436.113 290.481 434.456 284.549 434.456H33.3098C27.3762 434.456 20.2739 431.117 20.2739 423.368L21.1847 422.005C25.8382 416.445 38.2734 411.824 44.2033 411.824H273.656C279.585 411.824 294.972 415.652 298.49 422.917L299.401 428.363Z" fill="#5E7C9D"/>
<path d="M302.356 429.493C298.967 422.77 297.582 418.828 291.69 418.828H27.853C21.9635 418.828 20.4131 423.126 17.1946 429.493L0 469.774H88.872L82.8291 441.573H236.72L230.675 469.774H319.548L302.356 429.493Z" fill="#2F4876"/>
<path d="M232.474 397.717C231.272 394.678 229.089 390.77 227.729 390.243C224.967 389.179 223.261 390.395 223.552 393.101C223.845 395.803 228.473 402.195 228.473 402.195L232.474 397.717" fill="#2F4876"/>
<path d="M200.989 395.68C199.769 400.547 197.845 405.115 200.596 410.082C205.463 413.125 245.604 410.69 245.604 410.69C245.604 410.69 249.728 410.224 248.646 405.822C247.906 402.812 239.112 402.166 231.841 396.862C226.974 401.729 224.837 394.877 221.033 397.256C211.599 403.154 200.989 395.68 200.989 395.68Z" fill="#2F4876"/>
<path d="M212.19 408.064C203.746 407.665 199.808 408.652 199.808 408.652C199.808 409.83 199.613 412.784 200.791 412.978C201.971 413.173 234.055 415.314 245.206 412.783C247.961 412.157 249.236 407.793 248.866 407.499C248.669 408.871 247.55 409.54 245.798 409.83C227.915 412.783 221.126 408.486 212.19 408.064" fill="#211E1E"/>
<path d="M231.413 401.178L231.507 400.656L232.909 399.241L227.172 399.887L226.672 399.55L226.904 399.004L231.615 396.444L232.257 396.639L232.064 397.27L229.469 398.676L234.141 398.158L234.622 398.424L234.527 398.966L233.045 400.447L238.89 400.124L239.391 400.571L238.94 401.069L231.861 401.463H231.841L231.413 401.178Z" fill="white"/>
<path d="M105.115 378.728C106.198 375.636 107.109 371.258 106.422 369.962C105.035 367.36 102.952 367.156 101.398 369.387C99.8472 371.624 99.1592 379.487 99.1592 379.487L105.115 378.728Z" fill="#2F4876"/>
<path d="M82.6587 356.562C78.548 359.444 74.102 361.633 72.9277 367.184C74.6177 372.669 106.54 397.123 106.54 397.123C106.54 397.123 109.959 399.474 112.025 395.442C113.442 392.679 107.221 386.434 105.201 377.659C98.3357 378.153 101.07 370.826 96.6292 370.133C85.6412 368.409 82.6587 356.562 82.6587 356.562" fill="#2F4876"/>
<path d="M83.0109 373.257C76.8935 367.422 73.2728 365.589 73.2728 365.589C72.4993 366.486 70.4181 368.58 71.1826 369.501C71.9428 370.423 94.7857 393.054 104.872 398.448C107.36 399.778 111.181 397.318 111.095 396.853C110.043 397.76 108.762 397.532 107.248 396.606C91.8046 387.118 89.4859 379.43 83.0109 373.257" fill="#211E1E"/>
<path d="M107.806 385.489L102.203 381.154L102.042 380.646L102.463 380.309L104.442 380.166L99.6967 376.89L99.5225 376.311L100.06 376.04L105.298 377.194L105.662 377.764L105.096 378.115L102.212 377.484L106.087 380.157L106.28 380.665L105.855 381.012L103.751 381.164L108.381 384.749L108.467 385.404L108.094 385.584L107.806 385.489Z" fill="white"/>
<path d="M144.854 227.884V227.409H144.379V226.459H143.904V225.51H143.43V224.085H142.955V223.135H142.48V222.186H142.005V220.761H141.53V219.811H142.005V220.286H142.48V221.236H142.955V222.186H143.43V223.135H143.904V224.085H144.379V225.035H144.854V225.984H145.329V227.884" fill="url(#paint2_linear_1217_4090)"/>
<path d="M145.561 228.639C145.561 228.639 145.382 228.297 145.077 227.67C145.106 227.399 145.136 227.129 145.165 226.858C145.42 227.323 145.679 227.793 145.945 228.259L145.561 228.639Z" fill="url(#paint3_linear_1217_4090)"/>
<path d="M145.944 228.259C145.679 227.793 145.419 227.323 145.165 226.858C143.921 224.584 142.78 222.304 141.765 220.025C138.22 210.775 134.177 196.069 139.217 186.05C144.104 189.559 148.571 192.698 161.596 196.112C166.088 197.46 170.708 198.553 175.064 199.44L145.944 228.259" fill="url(#paint4_linear_1217_4090)"/>
<path d="M175.064 199.44C170.708 198.552 166.088 197.46 161.596 196.112C162.787 196.425 164.05 196.739 165.391 197.057C165.391 197.057 167.973 186.453 171.115 173.314L172.4 174.706L186.844 172.013L190.947 170.56L196.289 173.381L195.306 179.407L175.064 199.44" fill="url(#paint5_linear_1217_4090)"/>
<path d="M141.185 178.258L143.947 172.213C142.941 174.563 141.999 176.572 141.185 178.258ZM147.925 161.614L150.567 152.436C149.725 155.783 148.831 158.836 147.925 161.614Z" fill="url(#paint6_linear_1217_4090)"/>
<path d="M165.391 197.057C164.05 196.738 162.787 196.425 161.596 196.112C148.571 192.698 144.105 189.559 139.217 186.05C139.447 185.594 139.694 185.143 139.963 184.706L138.767 183.552L141.185 178.257C141.999 176.572 142.942 174.563 143.947 172.213L146.459 166.714L147.926 161.614C148.831 158.836 149.725 155.783 150.567 152.435L150.86 151.414L171.115 173.314C167.973 186.453 165.391 197.057 165.391 197.057" fill="url(#paint7_linear_1217_4090)"/>
<path d="M167.084 79.1765C161.82 85.0171 134.658 121.922 133.185 136.956C134.821 144.999 169.794 177.569 174.35 179.559C181.964 182.612 186.151 180.19 186.151 180.19C186.151 180.19 187.815 179.449 188.805 179.696C190.372 180.095 193.381 181.634 193.518 181.073C193.615 180.684 191.702 178.205 189.983 177.636C187.621 176.847 186.449 176.705 186.449 176.705C186.449 176.705 190.077 176.064 195.288 179.407C195.288 179.407 197.549 178.319 192.142 175.176C189.753 173.785 186.638 174.098 186.638 174.098C186.638 174.098 189.588 173.21 192.244 174.392C192.244 174.392 196.562 177.241 197.057 176.752C197.666 176.145 194.8 173.899 192.045 172.427C189.836 171.249 187.573 170.855 187.573 170.855C187.573 170.855 190.179 171.149 192.34 171.743C193.423 172.032 195.679 174.15 196.267 173.362C196.71 172.773 195.187 171.249 193.026 170.067C191.342 169.155 188.942 168.642 187.325 168.495C185.715 168.348 178.048 170.323 178.048 170.323C178.048 170.323 160.598 149.629 153.231 136.956C150.671 132.554 180.395 101.86 181.33 98.099C182.263 94.3335 167.084 79.1765 167.084 79.1765" fill="#E5BDB1"/>
<path d="M178.798 79.11C174.096 76.1754 169.599 76.5364 164.929 78.4405C157.554 81.4368 147.005 102.795 147.005 102.795L168.503 120.023C168.503 120.023 184.168 103.085 185.145 96.9167C187.345 82.9942 178.798 79.11 178.798 79.11" fill="#9B49A9"/>
<path d="M164.855 78.4452C157.48 81.4415 146.935 102.795 146.935 102.795L156.512 110.227C160.383 100.867 167.706 86.793 180.452 79.9504C175.426 74.2618 169.47 76.5601 164.855 78.4452Z" fill="#6F2981"/>
<defs>
<linearGradient id="paint0_linear_1217_4090" x1="176.059" y1="74.879" x2="205.146" y2="45.009" gradientUnits="userSpaceOnUse">
<stop stop-color="white"/>
<stop offset="0.712519" stop-color="#B0A19B"/>
<stop offset="1" stop-color="#B0A19B"/>
</linearGradient>
<linearGradient id="paint1_linear_1217_4090" x1="176.06" y1="74.8793" x2="205.147" y2="45.0093" gradientUnits="userSpaceOnUse">
<stop stop-color="#E5BDB1"/>
<stop offset="0.712519" stop-color="#9C766C"/>
<stop offset="1" stop-color="#9C766C"/>
</linearGradient>
<linearGradient id="paint2_linear_1217_4090" x1="151.056" y1="215.619" x2="173.166" y2="165.208" gradientUnits="userSpaceOnUse">
<stop stop-color="white"/>
<stop offset="0.712519" stop-color="#B0A19B"/>
<stop offset="1" stop-color="#B0A19B"/>
</linearGradient>
<linearGradient id="paint3_linear_1217_4090" x1="151.056" y1="215.618" x2="173.166" y2="165.208" gradientUnits="userSpaceOnUse">
<stop stop-color="#100F0D"/>
<stop offset="0.712519" stop-color="#100F0D"/>
<stop offset="1" stop-color="#100F0D"/>
</linearGradient>
<linearGradient id="paint4_linear_1217_4090" x1="151.056" y1="215.618" x2="173.166" y2="165.208" gradientUnits="userSpaceOnUse">
<stop stop-color="#211E1D"/>
<stop offset="0.712519" stop-color="#1B1716"/>
<stop offset="1" stop-color="#1B1716"/>
</linearGradient>
<linearGradient id="paint5_linear_1217_4090" x1="151.056" y1="215.618" x2="173.166" y2="165.208" gradientUnits="userSpaceOnUse">
<stop stop-color="#9B48A9"/>
<stop offset="0.712519" stop-color="#673166"/>
<stop offset="1" stop-color="#673166"/>
</linearGradient>
<linearGradient id="paint6_linear_1217_4090" x1="151.056" y1="215.618" x2="173.165" y2="165.208" gradientUnits="userSpaceOnUse">
<stop stop-color="white"/>
<stop offset="0.712519" stop-color="#B0A19B"/>
<stop offset="1" stop-color="#B0A19B"/>
</linearGradient>
<linearGradient id="paint7_linear_1217_4090" x1="151.056" y1="215.618" x2="173.166" y2="165.208" gradientUnits="userSpaceOnUse">
<stop stop-color="#6F2981"/>
<stop offset="0.712519" stop-color="#4B1F4A"/>
<stop offset="1" stop-color="#4B1F4A"/>
</linearGradient>
</defs>
</svg>
