<svg width="272" height="366" viewBox="0 0 272 366" fill="none" xmlns="http://www.w3.org/2000/svg">
<path d="M213.284 80.5124C212.985 93.9743 201.874 104.658 188.454 104.359C174.993 104.103 164.309 92.9913 164.608 79.5294C164.864 66.1103 175.976 55.4263 189.437 55.6827C202.856 55.9819 213.54 67.0933 213.284 80.5124Z" fill="#BEB5B4"/>
<path d="M207.942 80.5123C207.685 93.9314 196.574 104.615 183.112 104.359C169.693 104.06 159.009 92.9485 159.265 79.5293C159.522 66.0675 170.676 55.3835 184.095 55.6826C197.557 55.939 208.198 67.0504 207.942 80.5123Z" fill="#978A8A"/>
<path d="M183.539 78.2046C183.283 75.5123 181.787 75.1705 181.488 75.2132L151.273 77.5209C150.974 77.5636 150.846 79.1449 151.017 81.1108C151.145 83.0339 151.487 84.6151 151.786 84.5724L182.043 82.2646C182.343 82.2219 183.71 81.1107 183.539 79.1876V78.2046" fill="#BEB5B4"/>
<path d="M176.146 114.445C176.146 114.445 179.351 93.1196 177.941 90.9828C176.531 88.846 169.394 80.3414 169.394 78.2046C169.394 76.0678 161.573 73.9311 163.71 86.7092C165.846 99.53 176.146 114.445 176.146 114.445Z" fill="#D29790"/>
<path d="M94.5203 274.886C67.948 278.096 56.4995 284.967 28.5834 292.298C11.8261 294.444 8.43092 293.542 6.05669 297.023C3.68247 300.499 15.3779 337.779 20.7484 344.844C26.1189 351.91 26.3041 345.395 26.3041 345.395C26.3041 345.395 26.6222 317.736 36.7507 310.323C48.2562 301.914 96.8044 293.215 96.8044 293.215L94.5203 274.886" fill="#D29790"/>
<path d="M29.362 328.419C32.3203 325.889 35.8864 321.938 35.9576 320.195C36.0953 316.686 34.0724 315.228 31.1284 316.591C28.2033 317.954 22.7759 325.627 22.7759 325.627L29.362 328.419Z" fill="#2F4876"/>
<path d="M19.5659 292.16C13.6161 292.659 7.72803 292.241 3.19326 297.246C1.92542 302.668 13.7396 333.082 18.1556 344.151C19.1623 346.663 23.4359 349.218 23.4359 349.218C23.4359 349.218 34.1104 350.371 34.3478 344.483C34.495 340.903 28.1986 340.509 28.3268 336.273C28.4502 332.261 28.531 332.346 30.079 327.375C22.7331 323.756 29.9318 317.868 25.7864 314.492C15.525 306.13 19.5659 292.16 19.5659 292.16" fill="#2F4876"/>
<path d="M18.7017 343.396C9.95035 325.988 12.7377 319.326 9.91241 309.535C7.12507 299.872 4.50392 295.812 4.50392 295.812C3.1696 296.268 -0.225578 297.175 0.011845 298.58C0.225525 299.9 9.00067 332.703 15.9856 346.236C16.4225 347.081 17.8803 349.365 21.6125 349.944C27.4341 350.856 32.3393 348.292 32.5292 347.765C30.9053 348.073 26.8929 348.031 23.9773 347.399C21.0333 346.753 19.0911 344.18 18.7017 343.396Z" fill="#211E1E"/>
<path d="M28.0609 336.981L24.8984 329.16L25.0409 328.538L25.6724 328.453L27.7997 329.493L24.8794 323.277L25.0503 322.588L25.7674 322.626L30.4636 326.962L30.4921 327.759L29.6943 327.788L27.116 325.395L29.4949 330.466L29.381 331.107L28.7399 331.211L26.4939 330.1L29.1055 336.568L28.7969 337.289L28.5832 337.332L28.0609 336.981" fill="white"/>
<path d="M165.457 225.326C159.636 236.969 117.911 301.491 104.815 301.491C91.714 301.491 52.1736 309.739 40.5352 309.739C39.8039 311.192 26.7076 289.364 35.44 287.906C44.1724 286.453 66.7276 273.357 90.7453 274.805C100.931 254.434 114.032 216.594 122.764 210.767C131.492 204.95 165.457 225.326 165.457 225.326" fill="#100F0D"/>
<path d="M203.132 238.018C200.14 258.992 207.135 306.695 214.124 335.409L210.506 347.898C210.506 347.898 258.826 361.758 258.826 354.27C258.826 346.777 232.225 344.526 232.225 331.041C232.225 317.56 235.103 226.033 235.103 226.033L203.132 238.018" fill="#E5BDB1"/>
<path d="M250.516 344.749C248.992 340.875 246.21 335.912 244.486 335.248C240.986 333.894 238.807 335.438 239.177 338.88C239.552 342.309 245.436 350.428 245.436 350.428L250.516 344.749Z" fill="#2F4876"/>
<path d="M210.506 342.161C208.958 348.339 206.512 354.147 210.007 360.457C216.194 364.318 267.197 361.226 267.197 361.226C267.197 361.226 272.44 360.638 271.067 355.044C270.127 351.212 258.949 350.4 249.704 343.657C243.536 349.84 240.82 341.131 235.971 344.156C223.991 351.644 210.506 342.161 210.506 342.161" fill="#2F4876"/>
<path d="M224.746 357.893C214.01 357.385 209.01 358.634 209.01 358.634C209.01 360.134 208.758 363.881 210.254 364.133C211.759 364.38 252.52 367.105 266.699 363.881C270.194 363.088 271.813 357.547 271.343 357.171C271.096 358.914 269.676 359.764 267.449 360.135C244.718 363.881 236.1 358.43 224.746 357.893" fill="#211E1E"/>
<path d="M249.153 349.147L249.282 348.477L251.081 346.687L243.778 347.494L243.146 347.086L243.427 346.374L249.414 343.121L249.424 343.13L250.231 343.368L249.989 344.185L246.689 345.965L252.648 345.305L253.251 345.642L253.132 346.326L251.233 348.211L258.674 347.808L259.305 348.368L258.74 348.995L249.737 349.498H249.709L249.153 349.147" fill="white"/>
<path d="M112.047 166.322C108.243 179.641 91.7184 189.428 98.5087 219.504C101.88 234.462 119.188 247.197 155.751 245.702C203.298 243.764 202.813 248.612 202.813 248.612C202.813 248.612 192.623 264.14 208.492 323.32H233.113C233.113 323.32 241.708 244.12 235.316 230.179C224.647 206.888 164.973 199.129 148.961 193.307L156.91 173.036L112.047 166.322" fill="#211E1E"/>
<path d="M150.12 11.4508C142.384 7.00621 108.922 -3.03682 114.008 50.2123C117.939 91.6235 119.478 133.206 105.717 132.607C112.298 138.548 130.076 144.189 130.076 144.189C130.076 144.189 145.59 90.3842 144.564 79.6575C143.581 68.888 129.435 21.3227 151.487 19.5705C153.453 19.3996 150.12 11.4508 150.12 11.4508" fill="#100F0D"/>
<path d="M189.864 62.3497C176.146 69.7003 165.718 83.4186 173.069 99.5301C176.146 106.24 164.522 100.513 154.479 93.5898C145.59 87.5213 147.342 78.4612 141.23 76.0679C156.957 61.8368 157.812 45.8108 156.53 30.2549C155.333 14.7417 189.864 62.3497 189.864 62.3497Z" fill="#E5BDB1"/>
<path d="M144.863 95.9829C143.894 95.2754 143.306 94.2259 142.992 92.9581C144.141 87.0035 144.801 82.1601 144.564 79.6577C144.554 79.539 144.54 79.4155 144.526 79.2873C144.554 79.1686 144.583 79.0499 144.611 78.9359C146.691 82.1079 147.508 86.9276 151.501 91.0777L144.863 95.9829Z" fill="url(#paint0_linear_1219_4152)"/>
<path d="M142.992 92.958C142.09 89.3112 143.434 83.8362 144.526 79.2872C144.54 79.4154 144.555 79.5389 144.564 79.6576C144.801 82.16 144.141 87.0035 142.992 92.958" fill="url(#paint1_linear_1219_4152)"/>
<path d="M186.294 55.8252C185.838 55.773 185.377 55.7397 184.912 55.716C178.283 46.9883 166.645 32.3014 160.524 28.2225C160.519 28.1323 160.514 28.0373 160.505 27.9471C160.419 26.8692 160.714 26.3848 161.298 26.3848C164.902 26.3848 179.722 44.5761 188.511 55.6827C187.766 55.697 187.025 55.7445 186.294 55.8252Z" fill="url(#paint2_linear_1219_4152)"/>
<path d="M188.972 56.2666C188.098 56.0719 187.205 55.9247 186.293 55.825C187.025 55.7443 187.765 55.6968 188.511 55.6826C188.668 55.8772 188.824 56.0767 188.972 56.2666Z" fill="url(#paint3_linear_1219_4152)"/>
<path d="M177.832 71.6184C181.127 67.9241 185.316 64.7854 189.865 62.3494C189.865 62.3494 187.894 59.6333 184.912 55.7159C185.377 55.7396 185.838 55.7728 186.294 55.8251C187.206 55.9248 188.098 56.0719 188.972 56.2666C190.335 57.9903 191.541 59.5241 192.514 60.7682L177.832 71.6184Z" fill="url(#paint4_linear_1219_4152)"/>
<path d="M148.657 67.7959C150.547 64.8044 152.684 60.6068 154.617 55.8726C153.334 59.9135 151.426 63.9069 148.657 67.7959Z" fill="url(#paint5_linear_1219_4152)"/>
<path d="M151.501 91.0776C147.508 86.9275 146.691 82.1078 144.611 78.9358C145.381 75.7116 145.988 73.0098 145.504 71.8369C146.387 71.0677 147.475 69.6621 148.657 67.796C151.425 63.907 153.334 59.9136 154.616 55.8727C158.201 47.107 161.103 36.4943 160.523 28.2225C166.644 32.3014 178.283 46.9883 184.911 55.7159C187.893 59.6334 189.864 62.3495 189.864 62.3495C185.315 64.7855 181.127 67.9242 177.831 71.6185L151.501 91.0776" fill="url(#paint6_linear_1219_4152)"/>
<path d="M145.822 69.8946C141.079 72.739 137.285 74.7001 133.486 76.59C132.042 77.3165 125.043 80.2559 123.533 85.3035C121.083 93.4803 122.778 106.011 119.26 119.207C117.175 127.033 119.027 145.993 114.283 155.471C109.549 164.959 97.2173 194.114 97.2173 194.114C97.2173 194.114 109.288 186.859 121.876 187.951C140.988 189.617 162.926 200.434 163.715 195.895C166.559 179.536 168.259 153.543 171.179 152.869C177.343 151.445 185.102 139.996 183.511 132.954C180.667 120.39 177.11 113.039 172.841 98.5801C172.841 98.5801 168.81 97.393 158.14 86.7232C151.701 80.2843 145.822 69.8946 145.822 69.8946" fill="#5A80C9"/>
<path d="M133.486 76.4143C132.042 77.1408 122.332 82.3926 120.822 87.4402C118.372 95.6218 122.778 105.831 119.26 119.022C117.175 126.852 119.027 145.813 114.283 155.296C109.549 164.778 97.2173 193.938 97.2173 193.938C97.2173 193.938 109.288 186.678 121.876 187.775C123.837 187.946 125.831 188.207 127.826 188.511C129.925 176.763 133.367 165.562 134.673 159.74C137.285 148.125 138.467 122.821 137.517 119.977C136.568 117.132 139.412 92.0034 140.837 89.1591C142.057 86.7136 146.525 83.1714 152.219 80.0849C149.227 75.816 145.822 69.719 145.822 69.719C141.079 72.5633 137.285 74.5197 133.486 76.4143Z" fill="#4053AD"/>
<path d="M203.943 32.2445C203.962 10.6248 193.454 0.24942 175.799 0.743259C158.149 1.23235 145.499 8.17456 145.461 29.7943C145.428 51.4139 160.889 72.2407 178.553 71.7564C190.543 71.424 197.927 63.2709 201.46 51.3095C204.057 50.8394 206.489 49.9847 206.332 48.1423C204.998 45.0986 204.114 42.5962 203.53 40.4499C203.806 37.7955 203.943 35.0604 203.943 32.2445" fill="#E5BDB1"/>
<path d="M178.098 71.813C180.063 71.7607 181.911 71.4949 183.648 71.039C172.884 62.7767 177.613 24.2668 181.44 16.7073C178.691 15.9143 180.049 3.1219 176.735 3.21212C159.023 3.7582 145.21 11.6976 145.091 32.1919C144.968 52.6767 160.395 72.3685 178.098 71.813" fill="#D29790"/>
<path d="M189.66 8.23143C199.185 3.7394 205.192 19.452 207.49 26.4607C193.155 32.6527 177.95 30.6774 177.95 30.6774L180.059 19.8984L189.66 8.23143Z" fill="#100F0D"/>
<path d="M189.66 8.23128L189.522 11.4793C196.389 12.9798 197.414 26.1519 199.219 29.3286C200.767 28.6923 205.567 27.225 207.32 26.4653C204.694 18.3882 199.186 3.73924 189.66 8.23128Z" fill="#211E1E"/>
<path d="M146.179 49.6666C142.152 40.4688 141.335 38.199 141.52 33.0327C142.228 12.9325 150.737 7.84222 161.117 2.78987C175.149 -4.02416 196.284 2.95126 197.376 9.74155L192.851 20.5016C192.851 20.5016 175.652 40.2646 174.446 38.5931C172.713 36.2094 169.213 35.5257 168.302 39.2627C167.399 42.9096 168.691 49.035 168.691 49.035C168.691 49.035 155.39 56.4853 151.976 61.1245L146.179 49.6666" fill="#100F0D"/>
<path d="M107.645 155.001C117.037 150.296 136.141 115.941 140.357 102.792C146.288 84.3064 125.49 74.1068 118.908 88.7416C115.432 96.4768 101.676 137.394 101.676 137.394L107.645 155.001Z" fill="#E5BDB1"/>
<path d="M137.551 85.9446C115.318 105.366 107.417 153.102 107.417 153.102C107.417 153.102 107.384 102.023 120.333 86.2486C128.657 76.1154 137.551 85.9446 137.551 85.9446Z" fill="#D29790"/>
<path d="M105.926 97.5165C101.686 120.869 91.5526 138.914 93.8176 146.696C96.491 155.894 101.956 160.443 106.292 157.997C110.637 155.552 119.155 146.169 118.904 140.352C117.422 105.888 119.863 98.4235 119.26 94.5488C118.666 90.6693 112.845 79.7004 109.331 78.3138C105.807 76.9225 95.8737 75.987 91.5194 79.083C87.1603 82.1695 86.3198 86.6474 94.0076 91.3768C101.7 96.1063 105.926 97.5165 105.926 97.5165" fill="#E5BDB1"/>
<path d="M94.1024 91.2865C101.79 96.016 106.012 97.4263 106.012 97.4263C101.771 120.784 91.6427 138.823 93.903 146.611C95.5412 152.238 98.2194 156.112 101.054 157.722C101.102 153.933 101.311 148.847 101.928 142.703C103.352 128.476 112.598 98.6087 112.598 95.7644C112.598 92.9201 104.065 83.6747 101.577 80.4743L99.4302 76.9795C96.4339 77.0982 93.4946 77.6585 91.6143 78.9928C87.2504 82.0793 86.41 86.5618 94.1024 91.2865" fill="#D29790"/>
<path d="M126.021 81.2103C128.286 79.197 132.042 77.2644 131.534 77.3024L60.317 82.8533C59.6903 82.9008 59.3246 84.8429 59.5051 87.1887C59.6903 89.5391 60.3408 91.4101 60.9628 91.3578L119.981 86.6094C120.955 85.5267 122.778 83.8837 126.021 81.2103" fill="#978A8A"/>
<path d="M106.344 75.4697C107.754 75.9826 110.812 80.9399 109.35 82.317C107.887 83.6988 102.621 78.8839 101.956 76.4147C101.13 73.3329 106.344 75.4697 106.344 75.4697" fill="#E5BDB1"/>
<path d="M94.6104 77.7202C96.0729 76.3384 99.5107 73.9784 101.837 75.4695C104.174 76.9557 108.357 83.7127 105.503 84.1021C102.645 84.4962 94.6104 77.7202 94.6104 77.7202Z" fill="#E5BDB1"/>
<path d="M92.2408 77.2455L94.9665 77.6016C96.1488 79.1401 102.431 83.7793 100.465 86.0918C98.4946 88.409 91.3671 80.8495 91.3671 80.8495C91.3671 80.8495 98.9837 87.9532 95.674 87.8535C92.3548 87.7585 86.5854 82.1315 86.5854 82.1315L92.2408 77.2455" fill="#E5BDB1"/>
<path d="M119.027 96.2109C119.259 91.7047 118.633 80.2419 116.795 78.2903C114.953 76.3387 109.117 76.1915 108.599 77.6018C108.086 79.0121 108.309 79.2875 111.909 80.5601C115.945 81.9846 113.661 85.3465 114.877 88.7416C116.847 94.2546 119.027 96.2109 119.027 96.2109" fill="#E5BDB1"/>
<path d="M98.542 82.9103C97.0937 68.5462 89.1021 58.3418 75.5167 55.8536L60.1698 55.0558L58.1612 58.2088C46.347 63.5508 37.5149 75.5312 38.8445 88.7509C40.3307 103.495 50.972 114.649 64.6665 116.396L64.8422 117.944L74.4056 116.149C76.419 115.689 79.4057 114.82 79.7239 114.687C92.0841 109.649 99.9238 96.581 98.542 82.9103" fill="#978A8A"/>
<path d="M90.6405 85.1894C91.5807 102.673 78.361 117.522 61.1242 118.348C43.8968 119.174 29.1718 105.674 28.2411 88.1856C27.3152 70.7066 40.5301 55.8583 57.7622 55.032C74.9991 54.2011 89.7193 67.7057 90.6405 85.1894Z" fill="#BEB5B4"/>
<path d="M32.7522 87.9911C32.7332 87.5448 32.7236 87.0889 32.7236 86.6473C32.7141 73.6318 42.7619 62.7958 55.7489 62.1785L56.917 62.1501C69.8376 62.1501 80.6403 72.44 81.3478 85.6454L80.5548 85.6928L79.7476 85.7356C79.0923 73.3612 68.9638 63.736 56.917 63.736L55.8249 63.774C43.7021 64.3486 34.3144 74.4628 34.3144 86.6473L34.3524 87.9057C35.0029 100.271 45.1266 109.901 57.1829 109.891L58.2798 109.872C70.3789 109.274 79.7808 99.1737 79.7903 87.0034L79.7476 85.7356L80.5548 85.6928L81.3478 85.6454C81.3668 86.106 81.3763 86.5571 81.3763 87.0034C81.3763 100.009 71.3285 110.822 58.3558 111.463L57.1829 111.491C44.2624 111.482 33.4502 101.192 32.7522 87.9911" fill="#978A8A"/>
<path d="M62.0506 86.3388C62.2738 90.432 59.1778 93.9126 55.1416 94.1026C51.1055 94.2972 47.658 91.1347 47.4396 87.0368C47.2212 82.9436 50.3124 79.4677 54.3534 79.273C58.3848 79.0831 61.8417 82.2409 62.0506 86.3388Z" fill="#978A8A"/>
<path d="M56.642 86.9181C56.4615 84.5677 56.001 82.692 55.6116 82.7205L15.943 85.7643C15.5537 85.7928 15.3827 87.7207 15.5631 90.0712C15.7436 92.4217 16.2042 94.3067 16.5936 94.2735L56.2621 91.225C56.6563 91.2013 56.8224 89.2686 56.642 86.9181" fill="#978A8A"/>
<path d="M20.4965 89.8097C20.6247 92.1744 19.0672 94.1687 17.0206 94.2685C14.974 94.3634 13.2124 92.5258 13.0889 90.1658C12.9654 87.7964 14.5229 85.802 16.5647 85.707C18.6113 85.6073 20.373 87.4402 20.4965 89.8097Z" fill="#BEB5B4"/>
<defs>
<linearGradient id="paint0_linear_1219_4152" x1="153.781" y1="108.419" x2="179.767" y2="34.7025" gradientUnits="userSpaceOnUse">
<stop stop-color="white"/>
<stop offset="0.663212" stop-color="#B0A19B"/>
<stop offset="1" stop-color="#B0A19B"/>
</linearGradient>
<linearGradient id="paint1_linear_1219_4152" x1="153.781" y1="108.419" x2="179.767" y2="34.7024" gradientUnits="userSpaceOnUse">
<stop stop-color="#100F0D"/>
<stop offset="0.663212" stop-color="#100F0D"/>
<stop offset="1" stop-color="#100F0D"/>
</linearGradient>
<linearGradient id="paint2_linear_1219_4152" x1="153.781" y1="108.419" x2="179.767" y2="34.7026" gradientUnits="userSpaceOnUse">
<stop stop-color="white"/>
<stop offset="0.663212" stop-color="#B0A19B"/>
<stop offset="1" stop-color="#B0A19B"/>
</linearGradient>
<linearGradient id="paint3_linear_1219_4152" x1="153.781" y1="108.418" x2="179.766" y2="34.7025" gradientUnits="userSpaceOnUse">
<stop stop-color="#BEB5B5"/>
<stop offset="0.663212" stop-color="#80716E"/>
<stop offset="1" stop-color="#80716E"/>
</linearGradient>
<linearGradient id="paint4_linear_1219_4152" x1="153.781" y1="108.419" x2="179.767" y2="34.7025" gradientUnits="userSpaceOnUse">
<stop stop-color="#978A8A"/>
<stop offset="0.663212" stop-color="#655453"/>
<stop offset="1" stop-color="#655453"/>
</linearGradient>
<linearGradient id="paint5_linear_1219_4152" x1="153.781" y1="108.419" x2="179.767" y2="34.7025" gradientUnits="userSpaceOnUse">
<stop stop-color="white"/>
<stop offset="0.663212" stop-color="#B0A19B"/>
<stop offset="1" stop-color="#B0A19B"/>
</linearGradient>
<linearGradient id="paint6_linear_1219_4152" x1="153.781" y1="108.419" x2="179.767" y2="34.7026" gradientUnits="userSpaceOnUse">
<stop stop-color="#E5BDB1"/>
<stop offset="0.663212" stop-color="#9C766C"/>
<stop offset="1" stop-color="#9C766C"/>
</linearGradient>
</defs>
</svg>
