<svg width="425" height="254" viewBox="0 0 425 254" fill="none" xmlns="http://www.w3.org/2000/svg">
<path d="M82.9043 144.464C82.9043 84.1639 131.794 35.2738 192.095 35.2738C252.395 35.2738 301.286 84.1639 301.286 144.464C301.286 204.765 252.395 253.655 192.095 253.655C131.794 253.655 82.9043 204.765 82.9043 144.464Z" fill="#4053AD"/>
<path d="M128.034 60.5307C129.402 37.5387 162.821 29.5471 206.626 32.1112C250.43 34.6754 276.969 63.7359 282.097 76.8986C286.798 88.9502 248.721 109.335 204.916 106.771C161.112 104.207 126.666 83.5227 128.034 60.5307" fill="#5A80C9"/>
<path d="M82.2637 154.892C82.2637 154.892 82.4964 152.693 82.995 148.947C83.0662 150.689 83.1754 152.427 83.3273 154.151L82.2637 154.892ZM93.2088 98.1098C98.8975 78.2945 107.055 59.8754 118.247 55.4878C122.146 53.954 126.268 52.6529 130.541 51.5513C129.886 52.7669 129.354 54.0442 128.946 55.3785C113.641 66.2477 101.262 80.9584 93.2088 98.1098" fill="url(#paint0_linear_1219_4221)"/>
<path d="M83.3275 154.151C83.1755 152.427 83.0663 150.69 82.9951 148.947C84.3294 138.923 87.5441 117.825 93.209 98.1099C101.262 80.9585 113.642 66.2478 128.946 55.3786C128.452 57.0073 128.143 58.7216 128.034 60.5307C127.141 75.5026 141.444 89.4962 163.624 98.1479L83.3275 154.151Z" fill="url(#paint1_linear_1219_4221)"/>
<path d="M163.623 98.1479C141.443 89.4963 127.141 75.5026 128.034 60.5307C128.143 58.7216 128.451 57.0073 128.945 55.3786C129.354 54.0443 129.886 52.767 130.541 51.5514C147.284 47.2351 166.349 46.0099 183.6 46.0099C191.839 46.0099 199.664 46.2901 206.625 46.6415C220.685 47.3253 229.318 52.3254 229.318 52.3254L163.623 98.1479Z" fill="url(#paint2_linear_1219_4221)"/>
<path d="M358.728 125.523C364.972 138.619 373.083 169.185 377.447 177.295C381.82 185.405 396.873 206.821 398.501 207.87C400.125 208.915 361.853 199.138 361.231 197.262C360.599 195.401 362.574 186.692 361.539 183.226C360.509 179.764 348.756 158.586 340.641 144.236C332.536 129.887 358.728 125.523 358.728 125.523" fill="#D29790"/>
<path d="M198.406 36.3231C208.23 51.4327 218.995 60.6495 237.713 59.4006C252.011 58.4509 270.777 82.4734 311.946 98.6988L341.89 151.725L369.331 146.112C369.331 146.112 353.115 88.7176 341.89 73.7457C325.075 51.3188 276.033 32.4864 245.197 17.6C225.567 8.12685 213.373 8.25503 213.373 8.25503L198.406 36.3231" fill="#100F0D"/>
<path d="M399.261 205.933C399.826 201.636 399.816 195.705 398.586 194.223C396.079 191.218 393.32 191.512 391.91 194.826C390.49 198.146 391.73 208.531 391.73 208.531L399.261 205.933" fill="#2F4876"/>
<path d="M361.852 184.47C357.299 189.313 354.402 192.148 354.374 199.66C358.054 206.327 406.07 229.423 406.07 229.423C406.07 229.423 411.132 231.537 412.737 225.748C413.824 221.788 404.076 215.363 399.071 204.532C390.31 207.03 391.872 196.787 385.922 197.091C371.202 197.808 361.852 184.47 361.852 184.47" fill="#2F4876"/>
<path d="M369.103 204.817C359.597 198.91 354.388 197.505 354.388 197.505C353.637 198.877 351.501 202.144 352.74 203.141C353.97 204.133 387.432 228.142 404.265 231.584C407.931 232.33 412.152 228.417 411.91 227.833C410.79 229.295 409.066 229.338 406.853 228.545C384.251 220.411 379.17 211.08 369.103 204.817" fill="#211E1E"/>
<path d="M404.565 213.986L396.132 209.874L395.785 209.257L396.231 208.711L398.767 207.98L391.725 205.036L391.359 204.328L391.972 203.829L399.076 203.91L399.698 204.542L399.066 205.154L395.158 205.116L400.899 207.514L401.274 208.127L400.828 208.697L398.145 209.466L405.12 212.856L405.405 213.701L404.836 214.053L404.565 213.986" fill="white"/>
<path d="M370.091 131.211C376.406 144.464 384.607 175.396 389.023 183.596C393.449 191.806 408.682 213.469 410.325 214.533C411.977 215.591 373.249 205.696 372.612 203.801C371.986 201.902 373.98 193.108 372.935 189.598C371.891 186.094 359.996 164.669 351.786 150.148C343.58 135.637 370.091 131.211 370.091 131.211Z" fill="#E5BDB1"/>
<path d="M207.879 40.9576C217.808 56.2524 228.701 65.5784 247.638 64.3058C262.111 63.3466 281.095 87.6634 322.749 104.074L353.049 157.722L380.817 152.043C380.817 152.043 364.407 93.9741 353.049 78.8265C336.025 56.1384 290.986 31.7172 259.789 16.6551C239.936 7.06797 224.76 7.66625 224.76 7.66625L207.879 40.9576" fill="#211E1E"/>
<path d="M411.094 212.576C411.673 208.227 411.673 202.229 410.41 200.734C407.879 197.68 405.077 197.984 403.658 201.337C402.219 204.689 403.477 215.202 403.477 215.202L411.094 212.576Z" fill="#2F4876"/>
<path d="M373.249 190.861C368.643 195.762 365.704 198.63 365.685 206.227C369.398 212.975 417.984 236.342 417.984 236.342C417.984 236.342 423.108 238.484 424.732 232.624C425.828 228.621 415.966 222.12 410.899 211.156C402.039 213.673 403.61 203.317 397.594 203.625C382.708 204.352 373.249 190.861 373.249 190.861" fill="#2F4876"/>
<path d="M380.58 211.446C370.955 205.458 365.689 204.043 365.689 204.043C364.939 205.434 362.774 208.739 364.032 209.746C365.271 210.743 399.128 235.046 416.16 238.526C419.874 239.277 424.138 235.321 423.896 234.728C422.761 236.209 421.018 236.257 418.777 235.454C395.904 227.23 390.766 217.78 380.58 211.446" fill="#211E1E"/>
<path d="M416.46 220.715L407.932 216.555L407.575 215.933L408.031 215.378L410.591 214.637L403.468 211.66L403.093 210.952L403.724 210.449L410.904 210.515V210.525L411.531 211.156L410.885 211.783L406.93 211.74L412.746 214.172L413.131 214.789L412.675 215.368L409.959 216.137L417.02 219.585L417.31 220.425L416.745 220.781L416.46 220.715" fill="white"/>
<path d="M43.7587 51.9836C55.1692 58.394 67.2208 50.3169 71.8363 46.9407C82.2639 39.3337 101.538 15.7861 102.777 16.9827C104.187 18.3503 113.931 70.8302 86.8793 72.8815C78.7167 73.5226 74.9987 74.7619 75.6397 81.4287C69.443 78.95 44.3569 81.0868 30.7669 89.5058C17.1341 97.9248 43.7587 51.9836 43.7587 51.9836" fill="#E5BDB1"/>
<path d="M38.3309 86.3433L38.2217 85.8732C47.8088 82.1551 59.5944 80.4599 67.6526 80.4599C68.9821 80.4599 70.2167 80.5074 71.3184 80.5976C62.4672 86.3433 38.3309 86.3433 38.3309 86.3433M76.6794 76.0771C77.7525 74.6573 79.6139 73.8928 82.2731 73.4179C80.4354 73.983 78.5265 74.833 76.6794 76.0771ZM93.0758 72.625C93.0758 72.625 91.9267 72.4018 90.1033 72.359C91.3474 72.0409 92.4965 71.604 93.5601 71.058L93.0758 72.625ZM52.9561 54.3862C52.2391 54.3862 51.5173 54.3434 50.7861 54.2627L51.0235 53.9066L56.5934 54.068C55.4063 54.2674 54.1907 54.3862 52.9561 54.3862Z" fill="url(#paint3_linear_1219_4221)"/>
<path d="M38.222 85.8733L36.0234 76.4713L50.7864 54.2628C51.5176 54.3435 52.2394 54.3863 52.9564 54.3863C54.191 54.3863 55.4066 54.2676 56.5937 54.0681L98.4181 55.2742L93.5604 71.0581C92.4968 71.6042 91.3476 72.041 90.1035 72.3592C89.9184 72.3544 89.7284 72.3544 89.5289 72.3544C87.5821 72.3544 85.0085 72.5728 82.2734 73.4181C79.6142 73.8929 77.7528 74.6574 76.6797 76.0772C75.4498 76.9035 74.2485 77.9053 73.1183 79.1209C72.6292 79.6528 72.0167 80.1419 71.3186 80.5978C70.217 80.5075 68.9824 80.46 67.6529 80.46C59.5947 80.46 47.8091 82.1553 38.222 85.8733" fill="url(#paint4_linear_1219_4221)"/>
<path d="M66.6362 114.611C55.1497 136.786 35.6906 139.436 18.0596 130.304C0.423895 121.206 -2.06429 102.26 9.39372 80.0706C11.5828 75.8112 14.0187 71.889 16.6398 68.3846C17.2144 66.1054 17.6798 63.4178 18.0549 60.0607C18.9144 58.2183 21.7064 58.7073 24.4463 59.6712C34.0382 50.9768 45.1828 47.7526 56.2657 53.4745C73.9014 62.582 78.0895 92.426 66.6362 114.611" fill="#E5BDB1"/>
<path d="M56.7453 53.6027C54.7747 52.5912 50.957 51.2807 49.0053 50.8058C63.3789 66.2383 34.2044 114.82 26.2698 120.94C28.5205 123.305 15.2201 128.737 18.5346 130.447C36.1703 139.564 55.6342 136.914 67.0969 114.744C78.5739 92.559 74.3763 62.7149 56.7453 53.6027Z" fill="#D29790"/>
<path d="M24.8734 102.26L2.21376 100.347C-1.83667 103.951 -1.25733 124.16 26.7633 134.963C52.4429 144.83 65.3919 131.872 73.3598 117.859C81.3325 103.832 78.6306 78.9643 78.6306 78.9643C78.6306 78.9643 51.8398 79.3584 53.3261 85.84C54.271 89.8145 52.8038 102.279 47.5568 100.461C45.0116 99.601 44.1236 95.7786 44.1236 95.7786L24.8734 102.26" fill="#100F0D"/>
<path d="M70.2312 141.345C72.5817 132.907 68.232 124.336 60.5016 122.175C52.7758 120.019 44.6133 125.1 42.2486 133.524C39.9028 141.957 44.2666 150.542 51.9829 152.693C59.7086 154.864 67.8712 149.768 70.2312 141.345Z" fill="#100F0D"/>
<path d="M94.0014 39.9985C101.57 23.9203 93.631 24.2384 93.631 24.2384C104.044 16.337 112.397 6.51242 118.247 4.34713C126.471 1.30812 137.602 2.24831 141.913 4.82197C146.249 7.39089 171.297 2.59023 180.732 1.82573C211.654 -0.700443 240.7 1.82573 240.7 1.82573C240.7 1.82573 235.648 18.2316 221.136 51.0529C219.346 55.0891 190.314 23.5072 122.027 68.7267C103.413 81.0584 113.423 78.2378 87.9519 59.7283C87.0022 51.2048 90.7725 46.841 94.0014 39.9985" fill="#9B49A9"/>
<path d="M108.304 82.9291C133.385 78.3183 137.189 51.0527 187.048 51.6795C220.021 52.1069 216.564 56.257 217.979 55.3263C220.819 53.4269 226.498 40.1693 230.601 28.9629C230.601 28.9629 215.31 22.4053 188.306 21.3892C163.22 20.4395 151.862 23.7539 138.604 28.4881C131.344 31.0807 91.7985 52.7669 88.4224 51.2047C84.4004 56.6749 84.6331 66.3617 86.0577 72.0361C110.712 89.0783 86.3283 86.97 108.304 82.9291" fill="#6F2981"/>
<path d="M122.493 72.4067C120.285 87.8676 88.2421 133.928 85.6827 145.766C81.0055 167.304 52.3913 188.245 46.5697 203.735C46.5697 203.735 44.3285 219.585 41.3987 225.554C38.4784 231.499 31.7071 239.566 28.7583 241.371C25.8 243.175 23.8294 238.802 24.988 235.829C26.1562 232.852 31.1658 222.695 31.1373 219.737C29.3756 222.121 25.2919 230.763 23.0934 229.675C21.9016 229.091 26.8447 219.571 27.8324 215.952C30.6719 205.539 33.5257 204.608 35.8762 202.22C35.8762 202.22 52.7285 157.736 63.5217 136.819C63.5217 136.819 82.2116 85.7593 89.2251 69.681C96.2243 53.598 125.864 48.6217 122.493 72.4067" fill="#E5BDB1"/>
<defs>
<linearGradient id="paint0_linear_1219_4221" x1="151.135" y1="154.92" x2="162.382" y2="31.1999" gradientUnits="userSpaceOnUse">
<stop stop-color="white"/>
<stop offset="0.712519" stop-color="#B0A19B"/>
<stop offset="1" stop-color="#B0A19B"/>
</linearGradient>
<linearGradient id="paint1_linear_1219_4221" x1="151.135" y1="154.92" x2="162.383" y2="31.2" gradientUnits="userSpaceOnUse">
<stop stop-color="#4053AD"/>
<stop offset="0.712519" stop-color="#273877"/>
<stop offset="1" stop-color="#273877"/>
</linearGradient>
<linearGradient id="paint2_linear_1219_4221" x1="151.135" y1="154.92" x2="162.382" y2="31.2" gradientUnits="userSpaceOnUse">
<stop stop-color="#5A80C9"/>
<stop offset="0.712519" stop-color="#37538E"/>
<stop offset="1" stop-color="#37538E"/>
</linearGradient>
<linearGradient id="paint3_linear_1219_4221" x1="110.165" y1="53.389" x2="51.0776" y2="70.5978" gradientUnits="userSpaceOnUse">
<stop stop-color="white"/>
<stop offset="0.712519" stop-color="#B0A19B"/>
<stop offset="1" stop-color="#B0A19B"/>
</linearGradient>
<linearGradient id="paint4_linear_1219_4221" x1="110.166" y1="53.3891" x2="51.0779" y2="70.5979" gradientUnits="userSpaceOnUse">
<stop stop-color="#E5BDB1"/>
<stop offset="0.712519" stop-color="#9C766C"/>
<stop offset="1" stop-color="#9C766C"/>
</linearGradient>
</defs>
</svg>
