<svg width="270" height="328" viewBox="0 0 270 328" fill="none" xmlns="http://www.w3.org/2000/svg">
<path d="M257.096 95.8793C257.096 108.758 246.659 119.2 233.781 119.2C220.903 119.2 210.466 108.758 210.466 95.8793C210.466 83.0029 220.903 72.5601 233.781 72.5601C246.659 72.5601 257.096 83.0029 257.096 95.8793Z" fill="#978A8A"/>
<path d="M245.21 95.8793C245.21 102.195 240.096 107.309 233.781 107.309C227.456 107.309 222.347 102.195 222.347 95.8793C222.347 89.5653 227.456 84.4517 233.781 84.4517C240.096 84.4517 245.21 89.5653 245.21 95.8793Z" fill="#978A8A"/>
<path d="M143.352 241.748C137.915 262.997 119.415 312.861 111.508 315.738C103.602 318.611 94.9887 317.894 87.7948 312.861C80.6246 307.842 33.9283 291.554 26.0269 292.267C18.1207 292.988 13.8091 302.086 13.8091 302.086C13.8091 302.086 4.47368 274.071 8.79003 269.048C13.0874 264.023 22.4323 269.048 26.7391 270.485C31.046 271.924 77.2817 259.636 93.5499 282.699C93.5499 282.699 95.473 238.871 100.502 230.969C105.525 223.068 143.352 241.748 143.352 241.748" fill="#D29790"/>
<path d="M94.3859 221.025C94.3859 229.578 92.0449 252.636 92.0449 272.327C92.0449 278.253 129.847 285.993 136.353 283.981C142.863 281.985 152.678 224.918 152.678 224.918L94.3859 221.025Z" fill="#100F0D"/>
<path d="M22.157 288.407C15.4474 288.24 13.1112 273.815 19.3744 269.422C25.1437 265.366 20.7942 264.169 20.7942 264.169C11.2355 263.572 -0.768598 264.147 0.0386387 270.956C0.841127 277.765 3.88968 282.645 3.29137 292.205C2.70731 301.758 -1.23868 320.054 17.38 321.279C24.232 321.726 26.9339 317.827 23.5577 314.156C13.3771 303.103 30.0346 295.822 28.2682 291.582C27.7411 290.328 27.6414 288.525 22.157 288.407" fill="#978A8A"/>
<path d="M151.875 99.2516C161.315 110.572 171.695 133.222 171.695 133.222C171.695 133.222 203.78 114.346 217.931 109.631C221.71 112.462 227.371 121.901 227.371 121.901C227.371 121.901 183.025 161.527 171.695 162.467C160.375 163.422 135.844 140.767 135.844 140.767L151.875 99.2516Z" fill="#D29790"/>
<path d="M125.991 193.304C139.462 189.159 223.41 195.374 229.631 202.631C235.851 209.89 234.821 222.321 231.706 229.578C228.6 236.832 204.753 292.794 202.683 299.015C200.613 305.234 216.159 307.304 220.309 312.494C224.45 317.675 179.145 317.229 177.811 312.494C176.486 307.76 182.996 303.16 184.027 296.949C185.066 290.723 177.811 247.193 203.723 228.543C168.49 247.193 120.81 244.088 106.299 240.983C91.7878 237.873 125.991 193.304 125.991 193.304" fill="#E5BDB1"/>
<path d="M202.684 306.278C201.744 312.913 187.147 313.531 183.519 306.787C180.171 300.58 178.471 304.768 178.471 304.768C176.748 314.186 175.907 326.185 182.759 326.185C189.621 326.185 194.82 323.729 204.246 325.448C213.672 327.149 238.435 330.453 238.435 323.61C238.435 316.755 234.233 314.009 229.28 313.34C217.371 311.76 211.003 299.319 206.578 300.571C205.258 300.957 203.463 300.838 202.684 306.278" fill="#978A8A"/>
<path d="M153.352 99.3646C153.352 84.6648 164.934 59.1937 164.934 59.1937L130.916 39.3209C130.916 39.3209 134.805 59.1937 122.411 79.2801C120.36 82.6135 153.352 99.3646 153.352 99.3646" fill="#D29790"/>
<path d="M101.636 183.455C89.7179 197.967 82.8374 217.877 90.2402 228.543C103.189 247.193 133.769 249.275 170.038 250.31C170.038 250.31 190.247 197.967 193.358 194.857C176.776 192.787 155.009 192.269 148.793 191.234C142.573 190.199 101.636 183.455 101.636 183.455Z" fill="#100F0D"/>
<path d="M148.532 191.234C145.108 190.665 130.327 188.355 117.762 186.404C115.188 195.161 114.381 201.879 128.323 208.59C132.516 210.612 166.277 212.563 184.449 213.489C188.315 204.159 191.876 196.083 193.106 194.857C176.515 192.787 154.748 192.269 148.532 191.234" fill="#211E1E"/>
<path d="M131.799 87.408L118.864 85.7759C118.864 85.7759 125.364 74.4038 128.855 64.9345C127.477 69.5163 125.426 74.3887 122.411 79.28C121.618 80.5654 126.053 83.858 131.799 87.408Z" fill="url(#paint0_linear_1219_4183)"/>
<path d="M134.42 87.7418L131.799 87.408C126.053 83.8581 121.618 80.5655 122.411 79.2801C125.427 74.3887 127.478 69.5163 128.855 64.9345C129.885 62.1467 130.655 59.5223 130.916 57.3983C131.22 54.9386 132.203 53.9984 133.542 53.9984C137.279 53.9984 143.789 61.34 146.087 63.6382C149.164 66.7152 159.293 73.3388 159.293 73.3388L134.42 87.7418" fill="url(#paint1_linear_1219_4183)"/>
<path d="M180.105 15.2187C172.607 -0.709022 132.065 -8.41434 128.105 18.0806C120.925 66.3443 151.785 71.3691 151.785 71.3691C161.292 73.6247 163.742 73.7101 171.064 70.8554C174.649 69.4698 177.299 60.1158 179.492 53.2063C182.674 52.5069 184.811 51.5667 184.431 49.3017C182.812 46.2356 182.945 43.4421 182.128 41.2108C183.662 30.3653 183.614 22.6643 180.105 15.2187Z" fill="#E5BDB1"/>
<path d="M160.166 4.37706C146.742 1.63388 129.89 2.64812 127.563 18.1808C120.379 66.4388 152.283 72.9922 152.283 72.9922C157.17 74.8673 158.632 74.3369 166.334 72.1574C151.443 67.5314 155.251 23.4563 160.166 4.37706" fill="#D29790"/>
<path d="M128.589 10.2699C131.922 5.39375 140.484 0.194192 153.243 0.00900289C165.617 -0.158143 170.575 1.93213 178.281 11.9466C181.909 16.6713 163.49 14.3545 160.56 15.2226C157.621 16.083 157.768 36.6053 157.768 36.6053C157.768 36.6053 145.237 41.5095 145.09 45.6516C144.943 49.7823 129.619 61.6387 129.619 61.6387C129.619 61.6387 123.323 48.2058 120.887 38.9093C115.189 17.1609 127.074 12.4922 128.589 10.2699Z" fill="#2A1412"/>
<path d="M164.407 29.6626C166.211 15.1613 172.004 19.3921 174.62 20.9966C177.123 22.5361 182.512 22.3452 182.512 22.3452C182.512 22.3452 187.308 14.6195 183.087 10.4071C174.82 2.14575 167.541 0.212641 155.166 0.392608C150.171 0.465259 148.105 18.233 155.693 37.4082C157.355 36.9671 157.426 37.0559 159.535 35.7021C159.535 35.7021 163.708 35.3142 164.407 29.6626" fill="#581A1B"/>
<path d="M153.048 36.7241C150.93 33.8418 147.151 31.9942 145.052 34.8062C142.958 37.5978 142.416 47.779 147.849 50.6076C153.262 53.4344 153.048 36.7241 153.048 36.7241" fill="#D29790"/>
<path d="M122.373 74.8973C112.577 86.2936 110.388 86.3696 105.259 101.327C100.824 114.276 101.024 148.769 95.938 173.613C91.5979 194.79 87.3623 202.625 85.0498 214.03C85.0498 214.03 123.137 193.043 155.009 191.485C157.036 184.03 159.866 176.021 164.335 138.246C165.982 124.385 163.546 117.965 155.531 98.7284C150.351 86.2936 122.373 74.8973 122.373 74.8973Z" fill="#5E7C9D"/>
<path d="M105.198 101.379C100.763 114.343 100.953 148.836 95.8719 173.674C91.5318 194.857 87.2914 202.686 84.9932 214.097C84.9932 214.097 103.617 203.836 125.716 197.131C126.832 175.013 130.669 99.5555 131.11 96.4638C131.537 93.4196 135.431 88.5524 137.649 82.4093C130.265 78.3584 122.373 74.63 122.373 74.63C112.577 86.0376 110.321 86.4308 105.198 101.379" fill="#2F4876"/>
<path d="M177.293 259.436C177.293 261.159 175.418 262.546 173.105 262.546H103.954C101.632 262.546 99.7559 261.159 99.7559 259.436V255.552C99.7559 253.837 101.632 252.441 103.954 252.441H173.105C175.418 252.441 177.293 253.837 177.293 255.552V259.436" fill="#BEB5B4"/>
<path d="M121.784 276.022C121.784 277.741 120.212 279.132 118.284 279.132H111.285C109.357 279.132 107.786 277.741 107.786 276.022V241.036C107.786 239.321 109.357 237.93 111.285 237.93H118.284C120.212 237.93 121.784 239.321 121.784 241.036V276.022" fill="#978A8A"/>
<path d="M171.016 276.022C171.016 277.741 169.449 279.132 167.516 279.132H160.517C158.589 279.132 157.018 277.741 157.018 276.022V241.036C157.018 239.321 158.589 237.93 160.517 237.93H167.516C169.449 237.93 171.016 239.321 171.016 241.036V276.022" fill="#978A8A"/>
<path d="M143.941 240.265C144.61 224.824 146.272 180.864 144.131 168.432C141.918 155.606 153.015 121.512 143.095 97.9548C137.473 84.6073 121.409 88.5339 115.887 94.8441C106.822 105.211 108.897 119.722 108.897 119.722C111.224 136.816 116.148 152.367 117.188 176.2C117.482 183.052 124.629 224.501 127.321 239.891C126.917 243.011 126.362 247.408 125.735 253.804C124.89 262.461 126.661 264.436 127.554 265.851C128.978 268.125 131.053 267.627 131.504 265.917C131.955 269.474 135.052 269.103 136.158 266.306C135.968 269.607 141.989 269.607 141.543 266.434C142.188 269.803 145.631 268.339 146.267 264.165C147.345 257.232 147.231 253.756 147.108 252.38C147.336 252.617 147.668 251.933 148.665 252.502C151.291 254.003 152.032 252.636 152.426 252.252C153.718 250.959 148.803 246.685 143.941 240.265" fill="#E5BDB1"/>
<path d="M269.532 104.167C269.532 118.768 257.704 130.6 243.112 130.6C228.515 130.6 216.682 118.768 216.682 104.167C216.682 89.5786 228.515 77.7464 243.112 77.7464C257.704 77.7464 269.532 89.5786 269.532 104.167Z" fill="#BEB5B4"/>
<path d="M256.061 104.167C256.061 111.332 250.263 117.129 243.112 117.129C235.956 117.129 230.153 111.332 230.153 104.167C230.153 97.0146 235.956 91.2124 243.112 91.2124C250.263 91.2124 256.061 97.0146 256.061 104.167Z" fill="#978A8A"/>
<defs>
<linearGradient id="paint0_linear_1219_4183" x1="136.148" y1="86.9151" x2="151.302" y2="48.8365" gradientUnits="userSpaceOnUse">
<stop stop-color="white"/>
<stop offset="0.712519" stop-color="#B0A19B"/>
<stop offset="1" stop-color="#B0A19B"/>
</linearGradient>
<linearGradient id="paint1_linear_1219_4183" x1="136.149" y1="86.9151" x2="151.302" y2="48.8366" gradientUnits="userSpaceOnUse">
<stop stop-color="#D29790"/>
<stop offset="0.712519" stop-color="#8F5E57"/>
<stop offset="1" stop-color="#8F5E57"/>
</linearGradient>
</defs>
</svg>
