<svg width="330" height="427" viewBox="0 0 330 427" fill="none" xmlns="http://www.w3.org/2000/svg">
<path d="M309.403 171.941L8.41316 7.06572L7.60107 3.13399L312.737 160.958L309.403 171.941" fill="#978A8A"/>
<path d="M59.7105 168.997L1.35205 -9.42364e-05L10.7445 4.70558L75.5799 192.497L59.7105 168.997Z" fill="#978A8A"/>
<path d="M253.585 159.405C263.377 159.016 283.472 164.301 298.401 164.064C302.851 163.997 307.518 160.906 310.681 163.143C310.681 163.143 312.865 165.968 315.937 166.794C319.01 167.597 313.155 167.288 312.191 168.788C311.227 170.303 311.061 174.681 311.061 174.681C311.061 174.681 307.49 176.562 297.779 174.515C294.071 173.741 265.756 178.19 253.585 177.027C241.387 175.873 210.308 160.422 208.936 156.666C207.559 152.933 219.121 141 219.121 141L253.585 159.405Z" fill="#D29790"/>
<path d="M314.793 153.85L315.562 151.632L314.793 153.85ZM310.889 181.101C314.85 181.001 320.006 179.961 323.079 172.62C324.09 170.132 324.47 168 324.47 166.177C324.451 161.732 322.186 158.793 319.698 156.727C318.762 155.953 317.827 155.35 317.029 154.904L309.242 181.016C309.731 181.068 310.282 181.101 310.889 181.101V181.101ZM310.889 185.797C307.841 185.797 305.709 185.161 305.566 185.123C304.322 184.753 303.61 183.442 303.99 182.198L313.306 150.958C313.487 150.345 313.919 149.828 314.489 149.543C315.049 149.248 315.728 149.196 316.331 149.41C316.45 149.51 328.938 153.57 329.162 166.177C329.162 168.67 328.639 171.409 327.428 174.382C323.777 183.551 316.184 185.802 311.246 185.802L310.889 185.797" fill="#211E1E"/>
<path d="M301.63 163.878C306.492 159.068 310.476 161.461 316.322 160.317C318.568 159.875 319.845 159.904 318.624 161.87C317.404 163.831 311.359 164.624 307.618 164.667C303.89 164.719 301.63 163.878 301.63 163.878Z" fill="#D29790"/>
<path d="M318.748 163.351C317.551 162.957 311.212 164.315 311.336 165.203C311.45 166.096 315.595 166.025 317.276 165.507C312.186 166.476 310.296 165.84 310.491 167.473C310.704 169.097 316.388 168.095 316.388 168.095C316.388 168.095 310.676 167.558 310.704 169.097C310.714 170.631 313.587 170.954 314.94 170.849C316.288 170.73 311.678 171.258 311.198 172.179C310.718 173.1 312.504 173.912 314.133 173.717C315.776 173.508 318.867 169.624 319.456 168.052C320.04 166.481 318.748 163.351 318.748 163.351" fill="#D29790"/>
<path d="M239.734 349.306C241.866 357.293 223.314 382.606 227.407 390.693C231.519 398.794 240.081 404.345 244.449 407.868C248.832 411.387 226.087 408.747 218.926 408.319C211.761 407.897 207.236 406.966 207.62 400.456C208.01 393.941 215.873 378.11 214.814 355.825C213.523 328.797 239.734 349.306 239.734 349.306" fill="#D29790"/>
<path d="M243.428 404.226C242.374 400.498 240.247 395.65 238.709 394.881C235.598 393.305 233.442 394.539 233.471 397.754C233.499 400.973 238.2 409.036 238.2 409.036L243.428 404.226" fill="#2F4876"/>
<path d="M206.619 398.167C204.615 403.751 201.818 408.889 204.477 415.067C209.848 419.212 257.365 421.021 257.365 421.021C257.365 421.021 262.27 420.964 261.515 415.656C261.007 412.013 250.717 410.238 242.778 403.148C236.501 408.305 234.782 400.005 230.014 402.346C218.229 408.186 206.619 398.167 206.619 398.167" fill="#2F4876"/>
<path d="M218.352 414.041C208.461 412.583 203.717 413.291 203.717 413.291C203.579 414.668 202.995 418.12 204.367 418.486C205.73 418.851 243.229 425.11 256.667 423.429C259.967 423.016 261.976 418.039 261.567 417.636C261.178 419.236 259.796 419.896 257.693 420.024C236.306 421.406 228.817 415.575 218.352 414.041" fill="#211E1E"/>
<path d="M250.646 408.922L242.27 408.557L241.766 408.167L241.942 407.56L243.761 406.073L236.932 406.159L236.386 405.708L236.714 405.086L242.554 402.631H242.564L243.281 402.93L242.991 403.661L239.777 404.995L245.347 404.938L245.874 405.299L245.707 405.926L243.78 407.503L250.698 407.811L251.225 408.391L250.684 408.922H250.646" fill="white"/>
<path d="M183.887 89.6745C174.742 97.0251 170.682 122.838 167.648 132.752C162.947 148.009 153.117 142.881 151.194 142.496C150.297 142.325 152.605 145.53 155.981 148.736C159.998 152.582 165.554 156.428 168.972 154.505C175.255 150.873 190.64 140.359 191.323 126.128C191.965 111.897 183.887 89.6745 183.887 89.6745" fill="#2A1412"/>
<path d="M87.6412 329.428C61.9853 340.535 52.5739 350.825 26.8136 366.447C10.6878 373.575 7.02202 373.693 5.67821 377.882C4.33914 382.055 27.1222 415.893 34.601 421.368C42.0655 426.843 40.3229 420.276 40.3229 420.276C40.3229 420.276 32.4072 392.493 40.3514 382.07C49.3687 370.222 95.3621 347.093 95.3621 347.093L87.6412 329.428" fill="#D29790"/>
<path d="M38.3332 402.374C40.5459 398.955 42.939 393.945 42.4927 392.184C41.5905 388.622 39.1261 387.768 36.5856 390.009C34.069 392.246 30.916 401.534 30.916 401.534L38.3332 402.374Z" fill="#2F4876"/>
<path d="M17.7534 368.993C11.9603 371.262 5.93447 372.601 2.87646 378.955C3.21835 384.757 24.0831 411.681 31.7946 421.449C33.5515 423.661 38.5895 424.948 38.5895 424.948C38.5895 424.948 49.6107 422.93 48.1007 416.966C47.1795 413.329 40.7692 414.825 39.6295 410.537C38.5659 406.496 38.6703 406.553 38.7368 401.111C30.3225 399.672 35.7738 391.643 30.617 389.501C17.8674 384.178 17.7534 368.993 17.7534 368.993Z" fill="#2F4876"/>
<path d="M32.1175 420.532C18.1808 405.703 18.9928 398.219 13.2519 389.254C7.59176 380.417 3.76927 377.131 3.76927 377.131C2.56316 377.986 -0.566067 379.904 0.0892191 381.239C0.692272 382.492 19.235 412.707 30.2466 424.179C30.9399 424.896 33.0767 426.743 36.9847 426.216C43.0769 425.395 47.2223 421.373 47.2603 420.789C45.7218 421.586 41.6998 422.74 38.5991 422.968C35.4556 423.191 32.7443 421.202 32.1175 420.532" fill="#211E1E"/>
<path d="M39.5914 411.33L34.0974 404.449L34.05 403.794L34.6577 403.504L37.0937 403.913L32.3167 398.552L32.293 397.811L33.0147 397.64L38.9931 400.579V400.589L39.259 401.372L38.4755 401.629L35.1896 400.014L39.0785 404.373L39.1498 405.043L38.5468 405.347L35.9541 404.905L40.5031 410.603L40.4129 411.42L40.0425 411.543L39.5914 411.33" fill="white"/>
<path d="M211.286 237.74C204.444 255.775 200.735 266.34 198.318 273.311C198.318 273.311 159.751 300.985 133.744 323.512C111.844 344.832 46.7238 378.665 46.7238 378.665L33.8745 361.727C33.8745 361.727 56.7905 324.727 98.5626 305.539C117.338 278.06 128.122 269.417 135.225 253.41C144.661 232.166 152.306 229.925 165.454 216.591C186.005 195.745 211.286 237.74 211.286 237.74" fill="#100F0D"/>
<path d="M196.4 243.615C223.851 262.129 247.959 282.153 260.243 292.571C272.536 303.003 231.847 377.559 231.847 377.559L208.637 375.797C208.637 375.797 211.87 332.914 229.307 310.202C230.593 308.516 187.791 294.532 169.771 280.429L196.4 243.615" fill="#100F0D"/>
<path d="M228.589 179.078C219.871 186.557 235.94 170.061 232.777 165.317C232.008 159.591 229.7 148.308 228.29 146.342C226.581 143.949 222.905 141.556 218.888 137.795C218.162 125.573 230.598 117.966 239.615 114.931C239.615 114.931 219.529 65.4431 216.879 80.2298C214.23 94.9737 199.187 125.744 184.443 129.504C189.528 133.223 202.734 154.206 209.529 162.069C217.221 170.916 233.974 174.463 228.589 179.078" fill="#E5BDB1"/>
<path d="M228.932 196.215C232.778 189.976 238.419 189.121 237.137 178.223C236.539 172.967 236.453 173.522 233.633 162.539C233.034 158.992 229.786 147.325 227.778 145.146C226.111 143.351 223.846 142.197 223.846 142.197C225.299 143.436 229.786 151.257 229.701 160.103C223.846 160.402 219.658 161.599 215.983 159.42C208.547 154.975 205.042 137.069 186.794 127.838C183.845 129.504 176.623 130.829 172.734 134.248C165.34 143.351 173.161 163.309 175.341 181.771C177.563 200.831 171.665 207.412 170.17 216.9C167.178 224.464 158.503 236.772 161.152 238.139C177.221 253.781 205.384 260.96 206.965 256.131C219.53 217.669 226.496 200.104 228.932 196.215" fill="#5A80C9"/>
<path d="M172.135 134.504C164.742 143.607 175.554 151.428 174.058 169.975C172.562 189.121 177.904 189.805 170.169 205.617C167.178 213.182 148.117 229.891 150.767 231.259C157.135 235.319 166.238 244.123 174.486 247.926C179.144 239.422 189.229 225.831 195.64 209.934C202.093 193.694 201.067 183.865 197.563 157.881C195.426 142.069 187.776 133.564 182.862 129.248C179.486 130.017 174.785 132.154 172.135 134.504Z" fill="#4053AD"/>
<path d="M191.333 125.924C191.338 125.777 191.343 125.63 191.348 125.482C192.905 124.409 194.448 123.198 195.64 121.94C197.976 119.466 200.213 116.361 202.203 113.217L202.445 113.35C199.026 118.45 195.241 122.923 191.333 125.924M206.809 106.171L206.405 105.962C208.808 101.446 210.299 98.0079 210.299 98.0079C210.299 98.0079 210.365 98.3166 210.503 98.8627C209.378 101.299 208.138 103.758 206.809 106.171" fill="url(#paint0_linear_1219_4271)"/>
<path d="M202.444 113.35L202.202 113.217C203.779 110.724 205.203 108.207 206.405 105.961L206.808 106.17C205.445 108.64 203.983 111.057 202.444 113.35" fill="url(#paint1_linear_1219_4271)"/>
<path d="M187.639 128.279C187.496 128.199 187.349 128.127 187.202 128.047C188.408 127.368 189.885 126.489 191.347 125.482C191.342 125.63 191.338 125.777 191.333 125.924C190.108 126.864 188.878 127.653 187.639 128.279" fill="url(#paint2_linear_1219_4271)"/>
<path d="M201.234 139.642C197.834 135.478 193.527 131.423 187.639 128.279C188.879 127.652 190.108 126.864 191.333 125.924C195.241 122.923 199.026 118.45 202.445 113.35C203.983 111.057 205.446 108.64 206.809 106.171C208.138 103.758 209.378 101.299 210.503 98.8626C211.4 102.4 215.408 116.076 225.214 123.179L201.234 139.642" fill="url(#paint3_linear_1219_4271)"/>
<path d="M193.992 144.614C191.746 139.367 188.906 135.459 186.271 132.581L184.443 129.504C184.443 129.504 185.582 128.958 187.202 128.047C187.349 128.127 187.496 128.199 187.639 128.279C193.527 131.423 197.833 135.478 201.233 139.642L193.992 144.614" fill="url(#paint4_linear_1219_4271)"/>
<path d="M193.588 144.889L186.271 132.581C188.906 135.459 191.746 139.367 193.992 144.614L193.588 144.889" fill="url(#paint5_linear_1219_4271)"/>
<path d="M200.018 90.6908C199.311 70.3484 205.014 58.9758 221.177 58.4298C237.336 57.8362 247.897 67.9267 248.609 88.2596C248.756 92.1438 248.595 95.9045 248.125 99.4564C248.647 101.294 249.369 103.398 250.442 105.933C250.575 107.576 248.386 108.35 246.074 108.763C242.726 118.768 235.741 128.626 228.006 126.584C212.383 122.444 200.735 111.014 200.018 90.6908Z" fill="#E5BDB1"/>
<path d="M215.783 58.0782C207.459 59.2938 200.735 64.745 198.622 66.8676C192.154 73.4015 192.302 78.3874 192.33 84.9972C192.344 89.0714 180.706 83.6391 179.286 100.149C176.404 129.946 204.752 157.796 194.101 167.126C218.29 167.573 190.54 108.739 196.965 111.133C201.129 112.685 205.574 116.798 212.706 106.755C215.056 103.711 216.243 102.661 215.479 101.997C214.339 98.0079 214.762 90.9802 218.347 90.3297C220.479 89.9356 223.413 93.6536 223.413 93.6536L234.43 75.8517L246.591 74.9162C248.02 70.7281 240.019 54.5216 215.783 58.0782" fill="#2A1412"/>
<path d="M218.347 90.3296C220.479 89.9355 223.414 93.6536 223.414 93.6536L236.182 80.7853L247.365 75.9323C248.737 71.8819 244.259 55.6327 221.942 57.9025C216.775 68.8951 215.636 90.833 218.347 90.3296Z" fill="#581A1B"/>
<path d="M171.622 136.209C162.221 141.589 134.38 157.069 129.584 157.249C115.747 157.729 102.385 164.486 91.1646 168.641C87.0192 169.22 85.571 170.298 81.3496 169.453C71.6533 167.53 70.9268 169.273 68.225 169.277C59.1554 169.296 55.7792 168.432 57.237 170.265C58.7043 172.079 63.1868 173.76 63.1868 173.76C63.1868 173.76 61.2209 172.506 59.2646 175.032C56.4487 178.67 67.7454 186.12 70.2431 186.044C72.7407 185.973 79.0847 185.37 84.6071 182.715C86.8816 181.614 87.2283 180.308 91.3689 179.301L135.743 175.227C145.354 169.657 177.43 164.277 177.43 164.277C177.43 164.277 184.315 159.59 187.781 151.209C190.26 145.193 183.589 129.352 171.622 136.209" fill="#E5BDB1"/>
<path d="M55.4797 169.899C52.6449 172.383 50.1092 175.811 50.1234 179.805C50.1377 181.752 50.698 183.979 52.303 186.581C55.3847 191.548 59.8957 192.782 64.3545 192.834C67.0136 192.839 69.4734 192.336 71.1781 191.87L59.0743 167.259C58.0581 167.886 56.7713 168.765 55.4797 169.899ZM48.3001 189.055C46.3152 185.845 45.4272 182.706 45.4272 179.805C45.7644 167.682 59.0126 162.055 59.0885 161.865C60.2424 161.309 61.6242 161.799 62.1893 162.952L76.5818 192.208C76.8667 192.782 76.9095 193.471 76.6768 194.064C76.4489 194.677 75.9739 195.166 75.3804 195.418C75.2189 195.465 70.3898 197.512 64.3545 197.531L64.1504 197.535C58.8606 197.535 52.3173 195.641 48.3001 189.055Z" fill="#211E1E"/>
<path d="M69.3168 185.816C68.9036 184.729 68.6614 183.271 70.6272 182.398C72.5836 181.505 72.5029 181.476 73.4194 181.329C74.7157 181.12 74.4736 179.966 72.8686 179.691C70.5656 179.306 67.104 180.636 66.5769 181.386C66.0403 182.151 64.5682 182.559 64.9481 183.566C66.2634 187.175 69.3168 185.816 69.3168 185.816" fill="#D29790"/>
<path d="M68.6854 179.919C69.7395 179.306 72.2467 179.126 71.5202 178.224C70.1621 176.585 66.8003 177.492 66.1924 177.768C64.2456 178.651 61.8476 179.012 61.5104 180.465C61.311 181.353 61.1116 181.861 62.7736 183.005C64.4403 184.173 64.6254 182.996 64.6254 182.996L68.6854 179.919Z" fill="#D29790"/>
<path d="M70.0484 176.761C70.2573 176.111 70.1909 175.683 68.7046 175.422C65.9078 174.933 64.7064 175.256 62.9447 175.83C61.2068 176.405 58.8658 177.317 59.013 178.622C59.1554 179.919 61.1972 181.467 62.9114 179.943C65.0767 178.01 70.0484 176.761 70.0484 176.761Z" fill="#D29790"/>
<path d="M67.3888 173.879C67.6832 173.503 67.4885 171.875 65.6793 171.846C63.8891 171.804 61.9186 171.875 60.2851 172.416C58.6659 172.953 57.0941 175.146 57.2365 176.353C57.3647 177.549 59.6772 179.501 60.8976 177.763C63.6849 173.779 67.3888 173.879 67.3888 173.879Z" fill="#D29790"/>
<defs>
<linearGradient id="paint0_linear_1219_4271" x1="188.019" y1="142.643" x2="224.497" y2="103.312" gradientUnits="userSpaceOnUse">
<stop stop-color="white"/>
<stop offset="0.712519" stop-color="#B0A19B"/>
<stop offset="1" stop-color="#B0A19B"/>
</linearGradient>
<linearGradient id="paint1_linear_1219_4271" x1="188.019" y1="142.643" x2="224.496" y2="103.312" gradientUnits="userSpaceOnUse">
<stop stop-color="#978A8A"/>
<stop offset="0.712519" stop-color="#655453"/>
<stop offset="1" stop-color="#655453"/>
</linearGradient>
<linearGradient id="paint2_linear_1219_4271" x1="188.018" y1="142.643" x2="224.496" y2="103.311" gradientUnits="userSpaceOnUse">
<stop stop-color="#2A1513"/>
<stop offset="0.712519" stop-color="#211311"/>
<stop offset="1" stop-color="#211311"/>
</linearGradient>
<linearGradient id="paint3_linear_1219_4271" x1="188.019" y1="142.643" x2="224.497" y2="103.312" gradientUnits="userSpaceOnUse">
<stop stop-color="#E5BDB1"/>
<stop offset="0.712519" stop-color="#9C766C"/>
<stop offset="1" stop-color="#9C766C"/>
</linearGradient>
<linearGradient id="paint4_linear_1219_4271" x1="188.018" y1="142.643" x2="224.496" y2="103.312" gradientUnits="userSpaceOnUse">
<stop stop-color="#5A80C9"/>
<stop offset="0.712519" stop-color="#37538E"/>
<stop offset="1" stop-color="#37538E"/>
</linearGradient>
<linearGradient id="paint5_linear_1219_4271" x1="188.018" y1="142.643" x2="224.496" y2="103.312" gradientUnits="userSpaceOnUse">
<stop stop-color="#4053AD"/>
<stop offset="0.712519" stop-color="#273877"/>
<stop offset="1" stop-color="#273877"/>
</linearGradient>
</defs>
</svg>
